<?xml version="1.0" encoding="UTF-8"?>
<svg version="1.1" xmlns="http://www.w3.org/2000/svg" width="202" height="227">
<path d="M0 0 C20.20079546 16.97797119 33.57119903 38.76009989 36.8125 65.1875 C37.06242975 69.62293014 37.06675925 74.04188996 37.03955078 78.48339844 C37.03979185 79.77342899 37.04003292 81.06345955 37.0402813 82.39258194 C37.04072795 85.84365841 37.02924017 89.29459272 37.01506042 92.74563599 C37.00356645 95.99855127 37.00312858 99.2514614 37.00170898 102.50439453 C36.99126537 111.98211477 36.96334284 121.45980924 36.9375 130.9375 C36.89625 152.14 36.855 173.3425 36.8125 195.1875 C-26.2175 195.1875 -89.2475 195.1875 -154.1875 195.1875 C-154.249375 174.046875 -154.31125 152.90625 -154.375 131.125 C-154.40231201 124.474646 -154.42962402 117.82429199 -154.45776367 110.97241211 C-154.47131348 102.78820801 -154.47131348 102.78820801 -154.47383118 98.94459534 C-154.47840778 96.28674454 -154.48774465 93.62933694 -154.50422668 90.97157288 C-154.68044175 61.22241983 -150.7371935 35.13958573 -130.1875 12.1875 C-129.38828125 11.29417969 -128.5890625 10.40085937 -127.765625 9.48046875 C-94.39860095 -25.81157592 -38.26811635 -29.45558482 0 0 Z " fill="#F7F7F7" transform="translate(159.1875,27.8125)"/>
<path d="M0 0 C12.20771246 9.58531497 21.60115918 20.77282053 25.125 36.1875 C25.49915674 39.72735944 25.50695395 43.22090763 25.46557617 46.77783203 C25.46601425 47.78391006 25.46645233 48.7899881 25.46690369 49.82655334 C25.46483164 53.11634464 25.44157568 56.40561142 25.41796875 59.6953125 C25.41236716 61.99030275 25.40809972 64.28529661 25.40510559 66.58029175 C25.3937012 72.59397443 25.36427205 78.6074366 25.33099365 84.62103271 C25.30019755 90.76815814 25.28657992 96.91531951 25.27148438 103.0625 C25.23939803 115.10426306 25.18825524 127.14586313 25.125 139.1875 C12.15576351 139.2801089 -0.81339455 139.35121889 -13.78289413 139.39474869 C-19.80492568 139.41563898 -25.8267313 139.44398342 -31.84863281 139.48925781 C-37.65820797 139.5326634 -43.46756558 139.55662624 -49.27729034 139.56700897 C-51.49572424 139.5744098 -53.714146 139.58886157 -55.93248749 139.61042023 C-59.03565871 139.63938334 -62.13792668 139.6434589 -65.24121094 139.64160156 C-66.16190369 139.65598267 -67.08259644 139.67036377 -68.03118896 139.68518066 C-74.24156546 139.6448593 -74.24156546 139.6448593 -77.4800415 137.30657959 C-78.875 135.1875 -78.875 135.1875 -78.828125 132.828125 C-78.59609375 132.03921875 -78.3640625 131.2503125 -78.125 130.4375 C-77.79242188 129.23867188 -77.79242188 129.23867188 -77.453125 128.015625 C-77.26234375 127.41234375 -77.0715625 126.8090625 -76.875 126.1875 C-74.54166667 126.1875 -72.20833333 126.1875 -69.875 126.1875 C-69.875 129.1575 -69.875 132.1275 -69.875 135.1875 C-69.215 135.1875 -68.555 135.1875 -67.875 135.1875 C-67.875 134.58421875 -67.875 133.9809375 -67.875 133.359375 C-67.875 129.63541667 -67.875 125.91145833 -67.875 122.1875 C-65.895 122.1875 -63.915 122.1875 -61.875 122.1875 C-64.94390187 120.65304906 -67.57594266 121.63765711 -70.875 122.1875 C-70.545 123.1775 -70.215 124.1675 -69.875 125.1875 C-70.85082031 125.24808594 -71.82664063 125.30867187 -72.83203125 125.37109375 C-74.10433594 125.45488281 -75.37664062 125.53867188 -76.6875 125.625 C-77.95207031 125.70621094 -79.21664062 125.78742188 -80.51953125 125.87109375 C-83.86681893 126.05934547 -83.86681893 126.05934547 -86.875 127.1875 C-86.875 127.8475 -86.875 128.5075 -86.875 129.1875 C-85.885 129.1875 -84.895 129.1875 -83.875 129.1875 C-83.875 130.1775 -83.875 131.1675 -83.875 132.1875 C-81.4 131.1975 -81.4 131.1975 -78.875 130.1875 C-78.875 130.8475 -78.875 131.5075 -78.875 132.1875 C-81.35 133.1775 -81.35 133.1775 -83.875 134.1875 C-81.235 135.5075 -78.595 136.8275 -75.875 138.1875 C-75.875 138.5175 -75.875 138.8475 -75.875 139.1875 C-86.105 139.1875 -96.335 139.1875 -106.875 139.1875 C-107.05176782 69.8355914 -107.05176782 69.8355914 -106.66647339 50.18710327 C-106.639164 48.70578496 -106.61826648 47.22433236 -106.60427856 45.74282837 C-106.5198974 37.66318562 -105.97288987 31.23955154 -101.875 24.1875 C-101.33359375 23.19621094 -100.7921875 22.20492187 -100.234375 21.18359375 C-89.66659319 4.38287266 -73.54535389 -5.62760968 -54.5 -10.625 C-35.81823561 -14.54861639 -15.690766 -10.9791533 0 0 Z " fill="#299345" transform="translate(141.875,52.8125)"/>
<path d="M0 0 C3.75915495 2.5061033 3.72563254 3.81949803 4.6875 8.125 C4.93886719 9.22070312 5.19023438 10.31640625 5.44921875 11.4453125 C5.63097656 12.28835937 5.81273437 13.13140625 6 14 C6.34611328 13.22076172 6.34611328 13.22076172 6.69921875 12.42578125 C8.86130411 7.80250781 11.02377376 4.34840104 15 1 C15.66 1 16.32 1 17 1 C17.495 7.93 17.495 7.93 18 15 C20.1346875 13.0509375 20.1346875 13.0509375 22.3125 11.0625 C26.625 7.125 26.625 7.125 30 6 C28.9318153 11.11365014 27.76892524 16.07227969 26 21 C26.66386719 20.6390625 27.32773438 20.278125 28.01171875 19.90625 C28.89472656 19.4421875 29.77773437 18.978125 30.6875 18.5 C31.55761719 18.0359375 32.42773438 17.571875 33.32421875 17.09375 C36.11788829 15.95181208 38.01629113 15.78495792 41 16 C37.36822345 26.35056317 27.9752141 33.42547439 18.4921875 38.28515625 C12.66627665 40.83285081 7.33131982 41.6382103 1 42 C1 45.63 1 49.26 1 53 C2.36125 52.2575 3.7225 51.515 5.125 50.75 C20.24891907 43.29424776 33.67942216 42.37320493 50 46 C50 61.51 50 77.02 50 93 C34.25 95.25 34.25 95.25 29.36035156 95.93066406 C20.88333368 97.15542094 13.0455086 98.95106835 5 102 C4.01 102.33 3.02 102.66 2 103 C2 103.66 2 104.32 2 105 C-1.49511815 104.32062106 -4.19926007 102.88837106 -7.3125 101.1875 C-21.14259402 94.23912746 -34.33964409 93.49146247 -50 92 C-50 76.82 -50 61.64 -50 46 C-34.21921403 42.84384281 -13.69695528 43.02613275 0 52 C0 48.7 0 45.4 0 42 C-2.041875 41.7215625 -2.041875 41.7215625 -4.125 41.4375 C-16.92190543 38.82736631 -29.079209 31.30477191 -36.625 20.5625 C-38 18 -38 18 -38 16 C-36.41532272 16.28427417 -34.8322943 16.57774818 -33.25 16.875 C-32.36828125 17.03742188 -31.4865625 17.19984375 -30.578125 17.3671875 C-28.13052256 17.96796264 -26.19400143 18.77997117 -24 20 C-24.28875 19.31292969 -24.5775 18.62585938 -24.875 17.91796875 C-25.24625 17.01691406 -25.6175 16.11585937 -26 15.1875 C-26.37125 14.29417969 -26.7425 13.40085937 -27.125 12.48046875 C-28 10 -28 10 -28 7 C-23.8275894 7.51881113 -21.74583179 8.71151274 -18.6875 11.5625 C-17.99011719 12.20316406 -17.29273438 12.84382813 -16.57421875 13.50390625 C-15.79498047 14.24447266 -15.79498047 14.24447266 -15 15 C-14.90912109 13.84371094 -14.90912109 13.84371094 -14.81640625 12.6640625 C-14.73261719 11.66117188 -14.64882812 10.65828125 -14.5625 9.625 C-14.48128906 8.62726563 -14.40007812 7.62953125 -14.31640625 6.6015625 C-14 4 -14 4 -13 2 C-8.33845958 3.49835228 -7.13389249 6.88463591 -5 11 C-4.72285156 10.28972656 -4.44570312 9.57945313 -4.16015625 8.84765625 C-3.79792969 7.92855469 -3.43570313 7.00945312 -3.0625 6.0625 C-2.70285156 5.14597656 -2.34320313 4.22945313 -1.97265625 3.28515625 C-1 1 -1 1 0 0 Z " fill="#F8F7F6" transform="translate(103,69)"/>
<path d="M0 0 C1.55604119 1.18976526 3.09886614 2.39710709 4.625 3.625 C5.2953125 4.12128906 5.965625 4.61757812 6.65625 5.12890625 C13.26634992 10.26853903 15.59194699 16.64917667 17.625 24.625 C17.955 25.615 18.285 26.605 18.625 27.625 C19.48738287 35.86711823 17.95085263 43.06293361 14.625 50.625 C11.81553197 53.43446803 9.9324094 52.85885181 6 52.9375 C0.05735394 53.18320206 -5.27436971 54.18554102 -10.9375 56 C-11.59121582 56.20923096 -12.24493164 56.41846191 -12.91845703 56.6340332 C-16.92572757 57.98405141 -20.60358737 59.73098661 -24.375 61.625 C-25.035 61.625 -25.695 61.625 -26.375 61.625 C-26.375 57.995 -26.375 54.365 -26.375 50.625 C-25.49199219 50.47804687 -24.60898438 50.33109375 -23.69921875 50.1796875 C-10.26630398 47.669132 1.12609044 42.25888192 9.515625 31.11328125 C10.94811704 28.98127791 12.31955639 26.83657506 13.625 24.625 C12.03875765 25.05183239 10.4560902 25.49196158 8.875 25.9375 C7.99328125 26.18113281 7.1115625 26.42476562 6.203125 26.67578125 C3.56727495 27.64625331 1.77092674 28.83505644 -0.375 30.625 C-1.035 30.295 -1.695 29.965 -2.375 29.625 C-2.08625 28.78195313 -1.7975 27.93890625 -1.5 27.0703125 C-0.943125 25.42675781 -0.943125 25.42675781 -0.375 23.75 C0.181875 22.11417969 0.181875 22.11417969 0.75 20.4453125 C1.723772 17.79879146 1.723772 17.79879146 1.625 15.625 C1.09390625 16.02332031 0.5628125 16.42164062 0.015625 16.83203125 C-3.44791667 19.4296875 -6.91145833 22.02734375 -10.375 24.625 C-10.375 19.675 -10.375 14.725 -10.375 9.625 C-15.77510722 13.51810056 -18.45019591 17.68480055 -21.375 23.625 C-21.705 23.625 -22.035 23.625 -22.375 23.625 C-22.56835938 22.69816406 -22.76171875 21.77132812 -22.9609375 20.81640625 C-23.22132812 19.61886719 -23.48171875 18.42132813 -23.75 17.1875 C-24.00523438 15.99253906 -24.26046875 14.79757813 -24.5234375 13.56640625 C-24.80445313 12.59574219 -25.08546875 11.62507813 -25.375 10.625 C-26.035 10.295 -26.695 9.965 -27.375 9.625 C-28.695 13.585 -30.015 17.545 -31.375 21.625 C-33.13328396 19.28062138 -34.84551665 16.89783791 -36.4375 14.4375 C-38.07730393 11.57265596 -38.07730393 11.57265596 -40.375 10.625 C-40.705 15.245 -41.035 19.865 -41.375 24.625 C-42.57125 23.696875 -43.7675 22.76875 -45 21.8125 C-48.30882116 19.32205276 -51.5845395 17.33070723 -55.375 15.625 C-55.08625 16.39585938 -54.7975 17.16671875 -54.5 17.9609375 C-54.12875 18.96382812 -53.7575 19.96671875 -53.375 21 C-52.818125 22.49660156 -52.818125 22.49660156 -52.25 24.0234375 C-51.375 26.625 -51.375 26.625 -51.375 28.625 C-53.14611844 28.14688823 -54.91688483 27.6674722 -56.6875 27.1875 C-57.67363281 26.92066406 -58.65976563 26.65382812 -59.67578125 26.37890625 C-61.59017526 25.84420575 -63.48933615 25.25355462 -65.375 24.625 C-56.5947752 39.29196642 -43.6845542 46.42405422 -27.375 50.625 C-27.375 53.925 -27.375 57.225 -27.375 60.625 C-28.014375 60.356875 -28.65375 60.08875 -29.3125 59.8125 C-30.8284375 59.2246875 -30.8284375 59.2246875 -32.375 58.625 C-32.98053711 58.37814453 -33.58607422 58.13128906 -34.20996094 57.87695312 C-41.66122815 55.08054868 -49.04115823 55.00183827 -56.93164062 54.89257812 C-64.53992182 54.51621356 -64.53992182 54.51621356 -66.95849609 51.93505859 C-68.04745497 49.84686596 -68.76729724 47.89707866 -69.375 45.625 C-69.61605469 44.79226562 -69.85710937 43.95953125 -70.10546875 43.1015625 C-71.34935815 31.67220192 -71.4495711 20.63224889 -64.45703125 10.9765625 C-48.41383881 -7.93452806 -21.44449187 -14.58742962 0 0 Z " fill="#EC1C23" transform="translate(130.375,60.375)"/>
<path d="M0 0 C3.75915495 2.5061033 3.72563254 3.81949803 4.6875 8.125 C4.93886719 9.22070312 5.19023438 10.31640625 5.44921875 11.4453125 C5.63097656 12.28835937 5.81273437 13.13140625 6 14 C6.34611328 13.22076172 6.34611328 13.22076172 6.69921875 12.42578125 C8.86130411 7.80250781 11.02377376 4.34840104 15 1 C15.66 1 16.32 1 17 1 C17.495 7.93 17.495 7.93 18 15 C20.1346875 13.0509375 20.1346875 13.0509375 22.3125 11.0625 C26.625 7.125 26.625 7.125 30 6 C28.9318153 11.11365014 27.76892524 16.07227969 26 21 C26.66386719 20.6390625 27.32773438 20.278125 28.01171875 19.90625 C28.89472656 19.4421875 29.77773437 18.978125 30.6875 18.5 C31.55761719 18.0359375 32.42773438 17.571875 33.32421875 17.09375 C36.11788829 15.95181208 38.01629113 15.78495792 41 16 C37.36822345 26.35056317 27.9752141 33.42547439 18.4921875 38.28515625 C12.66627665 40.83285081 7.33131982 41.6382103 1 42 C1 45.63 1 49.26 1 53 C0.67 53 0.34 53 0 53 C0 49.37 0 45.74 0 42 C-2.041875 41.7215625 -2.041875 41.7215625 -4.125 41.4375 C-16.92190543 38.82736631 -29.079209 31.30477191 -36.625 20.5625 C-38 18 -38 18 -38 16 C-36.41532272 16.28427417 -34.8322943 16.57774818 -33.25 16.875 C-32.36828125 17.03742188 -31.4865625 17.19984375 -30.578125 17.3671875 C-28.13052256 17.96796264 -26.19400143 18.77997117 -24 20 C-24.28875 19.31292969 -24.5775 18.62585938 -24.875 17.91796875 C-25.24625 17.01691406 -25.6175 16.11585937 -26 15.1875 C-26.37125 14.29417969 -26.7425 13.40085937 -27.125 12.48046875 C-28 10 -28 10 -28 7 C-23.8275894 7.51881113 -21.74583179 8.71151274 -18.6875 11.5625 C-17.99011719 12.20316406 -17.29273437 12.84382813 -16.57421875 13.50390625 C-15.79498047 14.24447266 -15.79498047 14.24447266 -15 15 C-14.90912109 13.84371094 -14.90912109 13.84371094 -14.81640625 12.6640625 C-14.73261719 11.66117188 -14.64882812 10.65828125 -14.5625 9.625 C-14.48128906 8.62726563 -14.40007812 7.62953125 -14.31640625 6.6015625 C-14 4 -14 4 -13 2 C-8.33845958 3.49835228 -7.13389249 6.88463591 -5 11 C-4.72285156 10.28972656 -4.44570312 9.57945313 -4.16015625 8.84765625 C-3.79792969 7.92855469 -3.43570313 7.00945312 -3.0625 6.0625 C-2.70285156 5.14597656 -2.34320313 4.22945313 -1.97265625 3.28515625 C-1 1 -1 1 0 0 Z " fill="#FDF7F7" transform="translate(103,69)"/>
<path d="M0 0 C11.9074896 8.84520549 21.28147627 20.8444288 26 35 C26.08903619 36.51017174 26.12197948 38.02399578 26.12025452 39.53678894 C26.12232076 40.92841515 26.12232076 40.92841515 26.12442875 42.34815502 C26.12083064 43.36788056 26.11723253 44.38760611 26.11352539 45.43823242 C26.11364593 46.52893445 26.11376646 47.61963648 26.11389065 48.74339008 C26.11314311 52.28077024 26.10552202 55.81809799 26.09765625 59.35546875 C26.09618634 61.53666153 26.09516593 63.71785465 26.09460449 65.89904785 C26.08935729 73.99520394 26.07539613 82.09135248 26.0625 90.1875 C26.041875 108.275625 26.02125 126.36375 26 145 C-19.54 145 -65.08 145 -112 145 C-112.2475 118.5175 -112.2475 118.5175 -112.5 91.5 C-112.57283203 85.95509766 -112.64566406 80.41019531 -112.72070312 74.69726562 C-112.75683594 67.85058594 -112.75683594 67.85058594 -112.7635498 64.6307373 C-112.7757192 62.41380919 -112.80361371 60.19692921 -112.84460449 57.98034668 C-113.16873096 39.50644225 -110.53124462 26.52997198 -98.171875 12.23046875 C-72.14950268 -14.49394599 -31.68203254 -20.61474432 0 0 Z M-96.25 15.3125 C-102.6928643 22.83786984 -108.12334221 32.11969092 -108.4140625 42.15625 C-108.45281494 43.45667236 -108.49156738 44.75709473 -108.53149414 46.09692383 C-108.56341504 47.56459972 -108.59455361 49.03229278 -108.625 50.5 C-108.64368134 51.25235931 -108.66236267 52.00471863 -108.68161011 52.77987671 C-109.41103509 82.50480252 -109.07577955 112.26915549 -109 142 C-98.77 142 -88.54 142 -78 142 C-80.83328987 139.16671013 -82.35446828 138.2808625 -86 137 C-83.525 136.01 -83.525 136.01 -81 135 C-81 134.34 -81 133.68 -81 133 C-83.475 133.99 -83.475 133.99 -86 135 C-86 134.01 -86 133.02 -86 132 C-86.99 132 -87.98 132 -89 132 C-89 131.34 -89 130.68 -89 130 C-88.10796875 129.86722656 -87.2159375 129.73445312 -86.296875 129.59765625 C-85.12640625 129.42105469 -83.9559375 129.24445313 -82.75 129.0625 C-81.58984375 128.88847656 -80.4296875 128.71445313 -79.234375 128.53515625 C-76.76893039 128.1272264 -74.40575438 127.66098697 -72 127 C-72.33 126.34 -72.66 125.68 -73 125 C-66.25 123.875 -66.25 123.875 -64 125 C-65.98 125 -67.96 125 -70 125 C-70 126.32 -70 127.64 -70 129 C-70 132 -70 135 -70 138 C-70.66 138 -71.32 138 -72 138 C-72 135.03 -72 132.06 -72 129 C-73.32 129.33 -74.64 129.66 -76 130 C-76.99 129.67 -77.98 129.34 -79 129 C-79.44524767 130.40794534 -79.85525172 131.82707015 -80.25 133.25 C-80.48203125 134.03890625 -80.7140625 134.8278125 -80.953125 135.640625 C-81.22465641 138.09423487 -81.22465641 138.09423487 -79.6050415 140.11907959 C-75.67329863 142.95791936 -72.10061594 142.52805237 -67.36621094 142.45410156 C-66.39026978 142.45468567 -65.41432861 142.45526978 -64.40881348 142.45587158 C-61.1836386 142.45308531 -57.95938839 142.42196686 -54.734375 142.390625 C-52.49807236 142.38316456 -50.26176318 142.3774707 -48.02545166 142.37347412 C-42.13983101 142.35820238 -36.25460526 142.31890682 -30.36914062 142.2746582 C-24.3633356 142.233739 -18.35746675 142.21547024 -12.3515625 142.1953125 C-0.56753484 142.15241444 11.21619974 142.08414411 23 142 C23.0696385 128.74320891 23.12288165 115.48646165 23.15543652 102.22952461 C23.17106449 96.07319788 23.19225051 89.91699668 23.22631836 83.76074219 C23.25901386 77.81498869 23.27687458 71.86935563 23.28463173 65.92351913 C23.29015694 63.65982036 23.30094621 61.39612786 23.31719017 59.13248062 C23.33909964 55.95162168 23.34196125 52.77125479 23.34057617 49.59033203 C23.351362 48.66315872 23.36214783 47.73598541 23.3732605 46.78071594 C23.29974993 31.08742238 15.69830858 19.90085831 5 9 C4.38511719 8.360625 3.77023438 7.72125 3.13671875 7.0625 C-7.04883159 -2.70864894 -22.05560597 -8.18115821 -36 -9 C-37.00417969 -9.06445312 -38.00835937 -9.12890625 -39.04296875 -9.1953125 C-61.03791427 -9.94090387 -81.23761367 -0.54644946 -96.25 15.3125 Z " fill="#B7B4AD" transform="translate(144,50)"/>
<path d="M0 0 C10.70932159 7.95517387 18.40827817 17.92188084 24 30 C23.01 30.99 22.02 31.98 21 33 C20.52691406 32.10539062 20.05382812 31.21078125 19.56640625 30.2890625 C10.56574015 13.66712505 -1.54659782 1.04557803 -19.859375 -4.93359375 C-25.17655108 -6.46852441 -30.46405562 -7.67491864 -36 -8 C-37.00417969 -8.06445312 -38.00835937 -8.12890625 -39.04296875 -8.1953125 C-57.64129366 -8.82576419 -75.79283946 -2.15305725 -89.89453125 10.01171875 C-97.92412591 17.5943972 -106.25268829 27.95018967 -107.30970764 39.33607483 C-107.33778 40.60841476 -107.36585236 41.8807547 -107.39477539 43.19165039 C-107.41296829 43.89842926 -107.43116119 44.60520813 -107.4499054 45.33340454 C-107.50794046 47.67137257 -107.55275557 50.00940216 -107.59765625 52.34765625 C-107.63637675 53.99981198 -107.6759796 55.65194725 -107.71641541 57.30406189 C-107.82115499 61.67105811 -107.91496276 66.03822024 -108.00616455 70.40551758 C-108.15221471 77.29376834 -108.31636003 84.18163079 -108.47669601 91.069561 C-108.53489886 93.58652552 -108.59180194 96.10351713 -108.64859009 98.62051392 C-108.97164185 112.75224284 -109.43897869 126.87564023 -110 141 C-110.33 141 -110.66 141 -111 141 C-112.26256829 123.91167321 -112.39443421 106.83080905 -112.49662876 89.70241547 C-112.52721594 84.58533771 -112.57371321 79.46951973 -112.65844727 74.35302734 C-112.74102768 69.34827161 -112.78316449 64.34461799 -112.79795647 59.33921814 C-112.81007129 57.45436091 -112.83578802 55.56953233 -112.87640572 53.68507385 C-113.21462693 37.18478722 -109.15150378 24.93364391 -98.171875 12.23046875 C-72.14950268 -14.49394599 -31.68203254 -20.61474432 0 0 Z " fill="#BAB9B2" transform="translate(144,50)"/>
<path d="M0 0 C0.33 0 0.66 0 1 0 C1 32.34 1 64.68 1 98 C-23.79615724 98.16043524 -23.79615724 98.16043524 -34.3515625 98.1953125 C-41.55903881 98.21924017 -48.76631221 98.2475711 -55.97363281 98.30175781 C-61.78320797 98.3451634 -67.59256558 98.36912624 -73.40229034 98.37950897 C-75.62072424 98.3869098 -77.839146 98.40136157 -80.05748749 98.42292023 C-83.16065871 98.45188334 -86.26292668 98.4559589 -89.36621094 98.45410156 C-90.28690369 98.46848267 -91.20759644 98.48286377 -92.15618896 98.49768066 C-98.36656546 98.4573593 -98.36656546 98.4573593 -101.6050415 96.11907959 C-103 94 -103 94 -102.953125 91.640625 C-102.60507813 90.45726562 -102.60507813 90.45726562 -102.25 89.25 C-102.02828125 88.45078125 -101.8065625 87.6515625 -101.578125 86.828125 C-101.38734375 86.22484375 -101.1965625 85.6215625 -101 85 C-98.66666667 85 -96.33333333 85 -94 85 C-94 87.97 -94 90.94 -94 94 C-93.34 94 -92.68 94 -92 94 C-92 93.39671875 -92 92.7934375 -92 92.171875 C-92 88.44791667 -92 84.72395833 -92 81 C-88.4780279 80.91995518 -85.38018531 80.95994298 -82 82 C-82.33 82.99 -82.66 83.98 -83 85 C-83.804375 84.979375 -84.60875 84.95875 -85.4375 84.9375 C-87.93354885 84.70366379 -87.93354885 84.70366379 -89 86 C-88.34 86.33 -87.68 86.66 -87 87 C-86.505 87.99 -86.505 87.99 -86 89 C-84.02 88.01 -84.02 88.01 -82 87 C-82 89.31 -82 91.62 -82 94 C-81.34 94 -80.68 94 -80 94 C-80 91.03 -80 88.06 -80 85 C-79.34 85 -78.68 85 -78 85 C-77.62875 85.969375 -77.2575 86.93875 -76.875 87.9375 C-75.29354487 91.28006507 -75.29354487 91.28006507 -71.9375 91.9375 C-69.06540208 92.2269254 -69.06540208 92.2269254 -67 91 C-66.01 89.515 -66.01 89.515 -65 88 C-65 88.99 -65 89.98 -65 91 C-62.69 91 -60.38 91 -58 91 C-57.67 90.34 -57.34 89.68 -57 89 C-56.67 89.99 -56.34 90.98 -56 92 C-54.33333333 92.33333333 -52.66666667 92.66666667 -51 93 C-49.33333333 93.33333333 -47.66666667 93.66666667 -46 94 C-46 94.99 -46 95.98 -46 97 C-30.82 97 -15.64 97 0 97 C0 64.99 0 32.98 0 0 Z " fill="#209240" transform="translate(166,94)"/>
<path d="M0 0 C1.98 0 3.96 0 6 0 C6 0.33 6 0.66 6 1 C4.7934375 1.185625 4.7934375 1.185625 3.5625 1.375 C2.716875 1.58125 1.87125 1.7875 1 2 C0.67 2.66 0.34 3.32 0 4 C1.08539063 3.97679687 2.17078125 3.95359375 3.2890625 3.9296875 C4.73436807 3.9109173 6.17968115 3.89271844 7.625 3.875 C8.33785156 3.85824219 9.05070312 3.84148437 9.78515625 3.82421875 C14.23421356 3.78340171 17.85220559 4.17497046 22 6 C22.495 6.99 22.495 6.99 23 8 C23.99 7.67 24.98 7.34 26 7 C24.68 6.34 23.36 5.68 22 5 C22 4.67 22 4.34 22 4 C26.29 4 30.58 4 35 4 C35 4.66 35 5.32 35 6 C34.01 6.33 33.02 6.66 32 7 C32.309375 7.928125 32.309375 7.928125 32.625 8.875 C32.74875 9.57625 32.8725 10.2775 33 11 C32.34 11.66 31.68 12.32 31 13 C32.32 14.32 33.64 15.64 35 17 C25.40546697 14.10933941 25.40546697 14.10933941 22 11 C22 12.32 22 13.64 22 15 C20.02 14.34 18.04 13.68 16 13 C16 10.69 16 8.38 16 6 C15.34 6 14.68 6 14 6 C14 9.3 14 12.6 14 16 C13.34 16 12.68 16 12 16 C12 12.7 12 9.4 12 6 C10.68 6 9.36 6 8 6 C8 6.66 8 7.32 8 8 C8.99 8.33 9.98 8.66 11 9 C9.25 10.5625 9.25 10.5625 7 12 C4.75 11.6875 4.75 11.6875 3 11 C4.32 10.67 5.64 10.34 7 10 C6.505 8.515 6.505 8.515 6 7 C4.02 6.67 2.04 6.34 0 6 C0 8.97 0 11.94 0 15 C-0.33 15 -0.66 15 -1 15 C-1 12.03 -1 9.06 -1 6 C-1.99 6 -2.98 6 -4 6 C-4 9.3 -4 12.6 -4 16 C-6.18043828 13.81956172 -6.56240225 12.97566473 -7 10 C-6.67 8.68 -6.34 7.36 -6 6 C-9.3 6 -12.6 6 -16 6 C-16 9.3 -16 12.6 -16 16 C-16.99 15.01 -17.98 14.02 -19 13 C-21.62570704 12.74930087 -21.62570704 12.74930087 -24 13 C-24 12.01 -24 11.02 -24 10 C-23.01 10 -22.02 10 -21 10 C-21 9.34 -21 8.68 -21 8 C-23.31 7.34 -25.62 6.68 -28 6 C-28 9.3 -28 12.6 -28 16 C-28.99 15.34 -29.98 14.68 -31 14 C-33.15274948 14.30840599 -33.15274948 14.30840599 -35 15 C-35.38133299 13.0085944 -35.71325582 11.00720923 -36 9 C-35.67 8.67 -35.34 8.34 -35 8 C-37.475 7.01 -37.475 7.01 -40 6 C-40 9.3 -40 12.6 -40 16 C-40.99 15.01 -41.98 14.02 -43 13 C-45.62570704 12.74930087 -45.62570704 12.74930087 -48 13 C-48 12.01 -48 11.02 -48 10 C-47.01 10 -46.02 10 -45 10 C-45 9.34 -45 8.68 -45 8 C-46.98 7.34 -48.96 6.68 -51 6 C-51 5.34 -51 4.68 -51 4 C-34.83 4 -18.66 4 -2 4 C-1.34 2.68 -0.68 1.36 0 0 Z " fill="#5A5757" transform="translate(139,202)"/>
<path d="M0 0 C1.26457031 0.0012085 1.26457031 0.0012085 2.5546875 0.00244141 C20.03939849 0.17209899 20.03939849 0.17209899 26.0625 4.1875 C26.0625 4.8475 26.0625 5.5075 26.0625 6.1875 C25.4025 6.1875 24.7425 6.1875 24.0625 6.1875 C24.0625 6.8475 24.0625 7.5075 24.0625 8.1875 C24.7225 8.1875 25.3825 8.1875 26.0625 8.1875 C26.0625 8.8475 26.0625 9.5075 26.0625 10.1875 C25.4025 10.1875 24.7425 10.1875 24.0625 10.1875 C24.0625 10.8475 24.0625 11.5075 24.0625 12.1875 C24.7225 12.1875 25.3825 12.1875 26.0625 12.1875 C26.0625 12.8475 26.0625 13.5075 26.0625 14.1875 C25.4025 14.5175 24.7425 14.8475 24.0625 15.1875 C24.7225 15.5175 25.3825 15.8475 26.0625 16.1875 C26.0625 16.8475 26.0625 17.5075 26.0625 18.1875 C25.39347656 18.05472656 24.72445312 17.92195313 24.03515625 17.78515625 C11.8205009 15.53897131 -0.53447 14.99062651 -12.9375 15.1875 C-12.9375 14.5275 -12.9375 13.8675 -12.9375 13.1875 C-11.6175 12.8575 -10.2975 12.5275 -8.9375 12.1875 C-10.2575 11.5275 -11.5775 10.8675 -12.9375 10.1875 C-9.7410914 9.12203047 -7.28002724 9.11322162 -3.9375 9.1875 C-3.9375 8.5275 -3.9375 7.8675 -3.9375 7.1875 C-6.5775 7.1875 -9.2175 7.1875 -11.9375 7.1875 C-12.2675 6.5275 -12.5975 5.8675 -12.9375 5.1875 C-8.9775 4.5275 -5.0175 3.8675 -0.9375 3.1875 C-4.5675 3.1875 -8.1975 3.1875 -11.9375 3.1875 C-12.2675 2.5275 -12.5975 1.8675 -12.9375 1.1875 C-8.5950291 -0.03106601 -4.48401363 -0.00439954 0 0 Z " fill="#CAC7C4" transform="translate(73.9375,121.8125)"/>
<path d="M0 0 C0.66 0 1.32 0 2 0 C2 0.66 2 1.32 2 2 C1.34 2 0.68 2 0 2 C0.66 3.093125 1.32 4.18625 2 5.3125 C3.58464929 7.93707538 4 8.8256378 4 12 C2.62437146 10.71034824 1.29233607 9.37310707 0 8 C0 7.34 0 6.68 0 6 C-0.99 6 -1.98 6 -3 6 C-2.66132538 10.48684201 -2.66132538 10.48684201 0.0625 13.875 C0.701875 14.24625 1.34125 14.6175 2 15 C0.35 15 -1.3 15 -3 15 C-3.309375 15.639375 -3.61875 16.27875 -3.9375 16.9375 C-5 19 -5 19 -6 20 C-7.85287502 20.07226502 -9.70833878 20.0838122 -11.5625 20.0625 C-12.57441406 20.05347656 -13.58632813 20.04445313 -14.62890625 20.03515625 C-15.80259766 20.01775391 -15.80259766 20.01775391 -17 20 C-17 20.99 -17 21.98 -17 23 C-14.525 23.99 -14.525 23.99 -12 25 C-12.99 25.33 -13.98 25.66 -15 26 C-15.99 25.34 -16.98 24.68 -18 24 C-20.15274948 24.30840599 -20.15274948 24.30840599 -22 25 C-22.33 26.32 -22.66 27.64 -23 29 C-22.34 28.34 -21.68 27.68 -21 27 C-18.875 27.375 -18.875 27.375 -17 28 C-17 29.32 -17 30.64 -17 32 C-17.66 32 -18.32 32 -19 32 C-19 31.01 -19 30.02 -19 29 C-19.66 29.33 -20.32 29.66 -21 30 C-21 30.66 -21 31.32 -21 32 C-19.02 32.66 -17.04 33.32 -15 34 C-18.19668988 36.6486859 -21.39486597 38.93992341 -25 41 C-25.33 38.69 -25.66 36.38 -26 34 C-26.99 35.32 -27.98 36.64 -29 38 C-28.40470471 34.18189915 -27.2606562 31.2719919 -25.4375 27.875 C-23.41320509 24.15755484 -23.41320509 24.15755484 -23 20 C-22.01 19.67 -21.02 19.34 -20 19 C-18.24986662 17.31097201 -18.24986662 17.31097201 -16.5625 15.25 C-15.9540625 14.53328125 -15.345625 13.8165625 -14.71875 13.078125 C-12.78484399 10.73985682 -10.86815572 8.39123933 -9 6 C-9.99 6.66 -10.98 7.32 -12 8 C-14.6875 8.125 -14.6875 8.125 -17 8 C-15.59611229 4.60727136 -14.13632232 2.91452024 -11 1 C-8.45703125 0.7421875 -8.45703125 0.7421875 -5.8125 0.875 C-4.20933805 0.94541707 -2.60469705 0.99415411 -1 1 C-0.67 0.67 -0.34 0.34 0 0 Z " fill="#706E6E" transform="translate(48,35)"/>
<path d="M0 0 C1.25744019 0.00580078 1.25744019 0.00580078 2.5402832 0.01171875 C9.86076974 0.11204711 16.91785787 0.93319752 24.125 2.25 C24.125 2.91 24.125 3.57 24.125 4.25 C24.785 4.25 25.445 4.25 26.125 4.25 C26.125 4.91 26.125 5.57 26.125 6.25 C25.465 6.25 24.805 6.25 24.125 6.25 C24.125 6.91 24.125 7.57 24.125 8.25 C24.785 8.58 25.445 8.91 26.125 9.25 C25.465 10.24 24.805 11.23 24.125 12.25 C24.785 12.25 25.445 12.25 26.125 12.25 C26.125 12.91 26.125 13.57 26.125 14.25 C25.13628906 13.93289062 24.14757812 13.61578125 23.12890625 13.2890625 C19.13964778 12.15328065 15.19342884 11.80797048 11.0625 11.625 C10.33168213 11.58705322 9.60086426 11.54910645 8.84790039 11.51000977 C1.93936931 11.18003444 -4.95938199 11.15136203 -11.875 11.25 C-12.205 10.59 -12.535 9.93 -12.875 9.25 C-11.225 8.92 -9.575 8.59 -7.875 8.25 C-8.514375 8.12625 -9.15375 8.0025 -9.8125 7.875 C-10.493125 7.66875 -11.17375 7.4625 -11.875 7.25 C-12.205 6.59 -12.535 5.93 -12.875 5.25 C-11.885 5.25 -10.895 5.25 -9.875 5.25 C-9.875 4.59 -9.875 3.93 -9.875 3.25 C-10.865 2.92 -11.855 2.59 -12.875 2.25 C-8.88108378 -0.47018078 -4.63888932 -0.05123317 0 0 Z " fill="#D5D3D0" transform="translate(73.875,142.75)"/>
<path d="M0 0 C0.33 0 0.66 0 1 0 C1 14.19 1 28.38 1 43 C5.29 43 9.58 43 14 43 C26.20467791 44.35976031 39.1185396 47.37715912 49 55 C49.57105469 54.70996094 50.14210937 54.41992188 50.73046875 54.12109375 C65.51702408 46.81689172 83.54661665 43.72717604 100 44 C100 44.99 100 45.98 100 47 C99.06317383 47.13051758 98.12634766 47.26103516 97.16113281 47.39550781 C93.62605285 47.89354153 90.09272715 48.40174578 86.56005859 48.91650391 C85.04207284 49.13565087 83.52352403 49.35093893 82.00439453 49.56201172 C72.61318297 50.86996264 63.91426194 52.62184497 55 56 C54.01 56.33 53.02 56.66 52 57 C52 57.66 52 58.32 52 59 C48.50488185 58.32062106 45.80073993 56.88837106 42.6875 55.1875 C28.85740598 48.23912746 15.66035591 47.49146247 0 46 C0 30.82 0 15.64 0 0 Z " fill="#B3B4AB" transform="translate(53,115)"/>
<path d="M0 0 C0.33 0.99 0.66 1.98 1 3 C4.96 3 8.92 3 13 3 C12.38125 3.7425 11.7625 4.485 11.125 5.25 C9.39562719 7.48801188 8.13893339 9.43739987 7 12 C6.01 11.67 5.02 11.34 4 11 C4 10.34 4 9.68 4 9 C3.34 9 2.68 9 2 9 C1.67 11.31 1.34 13.62 1 16 C4.96 16 8.92 16 13 16 C13 16.33 13 16.66 13 17 C9.04 17 5.08 17 1 17 C1.33 22.28 1.66 27.56 2 33 C3.98 31.68 5.96 30.36 8 29 C8.50241322 26.3295947 8.50241322 26.3295947 8 24 C7.01 23.67 6.02 23.34 5 23 C4.67 23.66 4.34 24.32 4 25 C4.66 25 5.32 25 6 25 C6 26.32 6 27.64 6 29 C4.68 28.67 3.36 28.34 2 28 C1.875 25.625 1.875 25.625 2 23 C4 21 4 21 6.5 20.6875 C7.325 20.790625 8.15 20.89375 9 21 C11.178657 24.26798549 11.72208564 25.20905038 11 29 C7.98059086 32.01940914 5.35877078 34.49706491 1 35 C1 35.99 1 36.98 1 38 C4.63 38 8.26 38 12 38 C12 38.33 12 38.66 12 39 C7.05 39.495 7.05 39.495 2 40 C1.67 42.97 1.34 45.94 1 49 C1.66 49.33 2.32 49.66 3 50 C3 50.66 3 51.32 3 52 C3.66 52.33 4.32 52.66 5 53 C5 51.35 5 49.7 5 48 C7.475 47.505 7.475 47.505 10 47 C10.8125 49.1875 10.8125 49.1875 11 52 C8.8125 54.875 8.8125 54.875 6 57 C3.6875 56.8125 3.6875 56.8125 2 56 C3.98 55.01 5.96 54.02 8 53 C8 51.68 8 50.36 8 49 C7.01 51.475 7.01 51.475 6 54 C4.68 54 3.36 54 2 54 C1.34 55.32 0.68 56.64 0 58 C0 51.73 0 45.46 0 39 C-0.66 38.67 -1.32 38.34 -2 38 C-2 35.03 -2 32.06 -2 29 C-3.32 29 -4.64 29 -6 29 C-6.62645012 20.85614849 -6.62645012 20.85614849 -4.125 17.4375 C-2 16 -2 16 0 16 C0 10.72 0 5.44 0 0 Z " fill="#1F1D1D" transform="translate(16,126)"/>
<path d="M0 0 C0.33 0 0.66 0 1 0 C1 9.57 1 19.14 1 29 C15.85 28.505 15.85 28.505 31 28 C28.36 26.68 25.72 25.36 23 24 C27 22 27 22 29 22 C29 21.34 29 20.68 29 20 C27.35 20.66 25.7 21.32 24 22 C24 21.01 24 20.02 24 19 C23.01 19 22.02 19 21 19 C21 18.34 21 17.68 21 17 C20.34 16.34 19.68 15.68 19 15 C24.94 14.67 30.88 14.34 37 14 C37 13.34 37 12.68 37 12 C40 10 40 10 43.5625 10.1875 C47 11 47 11 49 14 C46.03 13.67 43.06 13.34 40 13 C39.67 13.66 39.34 14.32 39 15 C39.99 15.33 40.98 15.66 42 16 C41.34 16 40.68 16 40 16 C40 18.97 40 21.94 40 25 C39.34 25 38.68 25 38 25 C38 22.03 38 19.06 38 16 C37.01 16 36.02 16 35 16 C35 18.97 35 21.94 35 25 C34.67 25 34.34 25 34 25 C33.8046875 22.94921875 33.609375 20.8984375 33.4140625 18.84765625 C33.20910156 17.93306641 33.20910156 17.93306641 33 17 C32.34 16.67 31.68 16.34 31 16 C31.020625 16.928125 31.04125 17.85625 31.0625 18.8125 C31 22 31 22 30 25 C30.99 25.66 31.98 26.32 33 27 C33 27.66 33 28.32 33 29 C66 29 99 29 133 29 C133 29.33 133 29.66 133 30 C89.11 30 45.22 30 0 30 C0 20.1 0 10.2 0 0 Z " fill="#6B9F6F" transform="translate(34,163)"/>
<path d="M0 0 C1.26215332 -0.01969849 1.26215332 -0.01969849 2.54980469 -0.03979492 C3.34676758 -0.04084229 4.14373047 -0.04188965 4.96484375 -0.04296875 C5.68148193 -0.04707764 6.39812012 -0.05118652 7.13647461 -0.05541992 C9.0625 0.1875 9.0625 0.1875 12.0625 2.1875 C10.4125 2.5175 8.7625 2.8475 7.0625 3.1875 C9.5375 4.1775 9.5375 4.1775 12.0625 5.1875 C11.7325 5.8475 11.4025 6.5075 11.0625 7.1875 C8.41389573 7.78105614 5.77052678 7.92959269 3.0625 8.1875 C6.0325 8.5175 9.0025 8.8475 12.0625 9.1875 C12.0625 9.8475 12.0625 10.5075 12.0625 11.1875 C11.16494995 11.17178955 11.16494995 11.17178955 10.24926758 11.15576172 C-2.46476963 10.9628473 -14.55225245 10.96035803 -26.9375 14.1875 C-26.9375 13.5275 -26.9375 12.8675 -26.9375 12.1875 C-17.69950185 9.29740002 -9.52067155 8.83402236 0.0625 9.1875 C0.0625 8.5275 0.0625 7.8675 0.0625 7.1875 C-10.61415681 6.89431669 -10.61415681 6.89431669 -21.0703125 8.75 C-22.9375 9.1875 -22.9375 9.1875 -26.9375 9.1875 C-24.9375 7.1875 -24.9375 7.1875 -22.3125 7.0625 C-21.52875 7.10375 -20.745 7.145 -19.9375 7.1875 C-19.9375 6.5275 -19.9375 5.8675 -19.9375 5.1875 C-21.9175 5.5175 -23.8975 5.8475 -25.9375 6.1875 C-26.2675 5.5275 -26.5975 4.8675 -26.9375 4.1875 C-18.2614887 -0.15050565 -9.52679838 0.09569728 0 0 Z " fill="#F2F2F1" transform="translate(131.9375,121.8125)"/>
<path d="M0 0 C0.33 0.99 0.66 1.98 1 3 C4.96 3 8.92 3 13 3 C12.38125 3.7425 11.7625 4.485 11.125 5.25 C9.39562719 7.48801188 8.13893339 9.43739987 7 12 C6.01 11.67 5.02 11.34 4 11 C3.34 9.68 2.68 8.36 2 7 C1.67 9.97 1.34 12.94 1 16 C4.63 16 8.26 16 12 16 C12 16.66 12 17.32 12 18 C10.35 18.33 8.7 18.66 7 19 C7.66 19.66 8.32 20.32 9 21 C9 21.99 9 22.98 9 24 C8.01 24 7.02 24 6 24 C5.67 23.34 5.34 22.68 5 22 C4.67 22.99 4.34 23.98 4 25 C6.97 25 9.94 25 13 25 C12.401875 25.556875 11.80375 26.11375 11.1875 26.6875 C9.0136554 28.98556429 7.53101917 31.24416549 6 34 C4.29159719 32.36587557 3.06546953 31.13093906 2 29 C1.87625 30.134375 1.7525 31.26875 1.625 32.4375 C1.41875 33.613125 1.2125 34.78875 1 36 C0.01 36.495 0.01 36.495 -1 37 C-1 31.06 -1 25.12 -1 19 C-2.32 18.34 -3.64 17.68 -5 17 C-5.92678615 13.42525344 -6.40411569 11.0507008 -5.0625 7.5625 C-4.711875 7.046875 -4.36125 6.53125 -4 6 C-2.5216774 8.95664519 -2.93967217 11.74229737 -3 15 C-2.34 15 -1.68 15 -1 15 C-1.01160156 14.41992188 -1.02320313 13.83984375 -1.03515625 13.2421875 C-1.08762174 8.7001754 -0.91751063 4.47286431 0 0 Z " fill="#292626" transform="translate(16,84)"/>
<path d="M0 0 C2.71928517 0.37507382 3.84218661 0.84218661 5.8125 2.8125 C7 5 7 5 6.5625 7.125 C6.376875 7.74375 6.19125 8.3625 6 9 C6.66 9.66 7.32 10.32 8 11 C7.67 11.99 7.34 12.98 7 14 C7.61875 14.12375 8.2375 14.2475 8.875 14.375 C11 15 11 15 13 17 C13.046875 18.91015625 13.046875 18.91015625 12.75 21.0625 C12.66234375 21.77535156 12.5746875 22.48820312 12.484375 23.22265625 C12.32453125 23.80917969 12.1646875 24.39570313 12 25 C11.34 25.33 10.68 25.66 10 26 C10 23.03 10 20.06 10 17 C9.01 16.67 8.02 16.34 7 16 C7 27.88 7 39.76 7 52 C4.75040218 47.50080435 4.92077725 45.65560575 5.375 40.75 C5.54128906 38.85507813 5.54128906 38.85507813 5.7109375 36.921875 C5.85402344 35.47554687 5.85402344 35.47554687 6 34 C4.02 34.495 4.02 34.495 2 35 C2.66 35.99 3.32 36.98 4 38 C4 39.32 4 40.64 4 42 C0.7 41.67 -2.6 41.34 -6 41 C-6 40.67 -6 40.34 -6 40 C-3.36 40 -0.72 40 2 40 C1.319375 39.236875 0.63875 38.47375 -0.0625 37.6875 C-0.701875 36.800625 -1.34125 35.91375 -2 35 C-1.67 34.01 -1.34 33.02 -1 32 C1.31 32 3.62 32 6 32 C6 31.01 6 30.02 6 29 C2.04 29 -1.92 29 -6 29 C-5.401875 28.278125 -4.80375 27.55625 -4.1875 26.8125 C-2.22577804 24.29028605 -0.58276017 21.7698303 1 19 C3.62386487 22.06117568 4 22.73173127 4 27 C4.66 27 5.32 27 6 27 C6 23.37 6 19.74 6 16 C2.37 16 -1.26 16 -5 16 C-5 15.67 -5 15.34 -5 15 C-1.37 15 2.26 15 6 15 C6 13.68 6 12.36 6 11 C1.71 11 -2.58 11 -7 11 C-6.01 9.02 -5.02 7.04 -4 5 C-3.01 5.33 -2.02 5.66 -1 6 C-0.3125 8.0625 -0.3125 8.0625 0 10 C1.32 9.34 2.64 8.68 4 8 C3.01 7.67 2.02 7.34 1 7 C0.67 4.69 0.34 2.38 0 0 Z " fill="#181616" transform="translate(180,108)"/>
<path d="M0 0 C0.66 0 1.32 0 2 0 C3.79826445 2.25814848 5.4746801 4.51277739 7.125 6.875 C7.82689453 7.85146484 7.82689453 7.85146484 8.54296875 8.84765625 C12 13.73587828 12 13.73587828 12 16 C12.66 16 13.32 16 14 16 C14.86762314 18.24561282 15.7192103 20.49526255 16.5625 22.75 C16.80935547 23.38421875 17.05621094 24.0184375 17.31054688 24.671875 C18.58197079 28.11009179 19.46686355 30.52168882 18 34 C18 33.34 18 32.68 18 32 C14.04 32.99 10.08 33.98 6 35 C6.66 34.01 7.32 33.02 8 32 C7.68269476 28.36060068 7.68269476 28.36060068 7 25 C10.875 25.875 10.875 25.875 12 27 C12.33 24.36 12.66 21.72 13 19 C12.30132812 19.30035156 11.60265625 19.60070312 10.8828125 19.91015625 C9.97273437 20.29042969 9.06265625 20.67070313 8.125 21.0625 C7.22007812 21.44535156 6.31515625 21.82820313 5.3828125 22.22265625 C3 23 3 23 1 22 C3.97180943 20.10134397 6.51460083 18.64544429 10 18 C9.67 16.35 9.34 14.7 9 13 C4.05 15.475 4.05 15.475 -1 18 C-1 17.34 -1 16.68 -1 16 C1.5 14.375 1.5 14.375 4 13 C3.67 12.34 3.34 11.68 3 11 C1.35 11 -0.3 11 -2 11 C-2.66 9.35 -3.32 7.7 -4 6 C-3.34 5.34 -2.68 4.68 -2 4 C-1.01 4 -0.02 4 1 4 C0.67 2.68 0.34 1.36 0 0 Z " fill="#1B1817" transform="translate(165,45)"/>
<path d="M0 0 C-0.020625 1.11375 -0.04125 2.2275 -0.0625 3.375 C-0.26380718 6.83215921 -0.26380718 6.83215921 1 9 C0.01 8.67 -0.98 8.34 -2 8 C-2.33 6.02 -2.66 4.04 -3 2 C-3.99 2.495 -3.99 2.495 -5 3 C-5 4.32 -5 5.64 -5 7 C-6 8 -6 8 -9.3125 8.375 C-13 8 -13 8 -15.4375 5.625 C-17 3 -17 3 -17 1 C-17.99 1 -18.98 1 -20 1 C-19.01 4.63 -18.02 8.26 -17 12 C-17.66 11.67 -18.32 11.34 -19 11 C-19 10.34 -19 9.68 -19 9 C-20.65 8.67 -22.3 8.34 -24 8 C-24.33 8.99 -24.66 9.98 -25 11 C-26.32 11 -27.64 11 -29 11 C-29 9.68 -29 8.36 -29 7 C-28.34 7 -27.68 7 -27 7 C-27 6.34 -27 5.68 -27 5 C-28.98 5.33 -30.96 5.66 -33 6 C-25.46966434 -2.7853916 -10.21158906 -3.40386302 0 0 Z " fill="#4A4747" transform="translate(90,26)"/>
<path d="M0 0 C1.24716797 0.00902344 2.49433594 0.01804688 3.77929688 0.02734375 C6.83223504 0.05073791 9.88476306 0.08351826 12.9375 0.125 C13.4325 2.6 13.4325 2.6 13.9375 5.125 C10.72202992 7.0310196 8.43275559 7.34489297 4.71875 7.25 C3.2037793 7.22486328 3.2037793 7.22486328 1.65820312 7.19921875 C0.59537109 7.17472656 -0.46746094 7.15023437 -1.5625 7.125 C-9.97087669 7.0144296 -17.85543596 7.10922989 -26.0625 9.125 C-24.45104538 7.22469974 -23.5258267 6.22685976 -21.0546875 5.68359375 C-20.35601562 5.64363281 -19.65734375 5.60367188 -18.9375 5.5625 C-17.65875 5.418125 -16.38 5.27375 -15.0625 5.125 C-14.7325 4.465 -14.4025 3.805 -14.0625 3.125 C-17.6925 3.785 -21.3225 4.445 -25.0625 5.125 C-23.0625 2.125 -23.0625 2.125 -19.31640625 0.9453125 C-12.91909892 -0.29287602 -6.4892879 -0.08969776 0 0 Z " fill="#D2D0CD" transform="translate(131.0625,138.875)"/>
<path d="M0 0 C1.19689453 -0.01836914 1.19689453 -0.01836914 2.41796875 -0.03710938 C9.59533354 -0.05508274 9.59533354 -0.05508274 12.875 2.1875 C9.20089215 3.36321451 5.70570817 3.26116746 1.875 3.1875 C4.17129994 4.33564997 5.95198086 4.49519809 8.5 4.75 C9.31726563 4.83378906 10.13453125 4.91757813 10.9765625 5.00390625 C11.60304687 5.06449219 12.22953125 5.12507812 12.875 5.1875 C12.875 5.8475 12.875 6.5075 12.875 7.1875 C11.97744995 7.17178955 11.97744995 7.17178955 11.06176758 7.15576172 C-4.37650728 6.88742623 -4.37650728 6.88742623 -19.6640625 8.75 C-22.125 9.1875 -22.125 9.1875 -26.125 9.1875 C-23.9864515 7.0489515 -22.99224686 6.76094937 -20.125 6.1875 C-21.775 6.1875 -23.425 6.1875 -25.125 6.1875 C-25.455 5.5275 -25.785 4.8675 -26.125 4.1875 C-24.41774992 3.70448797 -22.70914026 3.22628042 -21 2.75 C-20.04867187 2.48316406 -19.09734375 2.21632812 -18.1171875 1.94140625 C-12.01459367 0.40380754 -6.26075159 0.00510665 0 0 Z " fill="#D8D6D3" transform="translate(131.125,146.8125)"/>
<path d="M0 0 C9.77946832 -0.30011067 18.17452134 1.45311859 27.50390625 4.19921875 C26.18390625 4.52921875 24.86390625 4.85921875 23.50390625 5.19921875 C22.84390625 8.49921875 22.18390625 11.79921875 21.50390625 15.19921875 C21.17390625 15.19921875 20.84390625 15.19921875 20.50390625 15.19921875 C20.50390625 12.55921875 20.50390625 9.91921875 20.50390625 7.19921875 C17.53390625 6.86921875 14.56390625 6.53921875 11.50390625 6.19921875 C12.82390625 6.52921875 14.14390625 6.85921875 15.50390625 7.19921875 C15.50390625 8.18921875 15.50390625 9.17921875 15.50390625 10.19921875 C13.02890625 9.70421875 13.02890625 9.70421875 10.50390625 9.19921875 C10.83390625 7.54921875 11.16390625 5.89921875 11.50390625 4.19921875 C12.14199219 4.28300781 12.78007813 4.36679687 13.4375 4.453125 C14.67693359 4.60587891 14.67693359 4.60587891 15.94140625 4.76171875 C16.76511719 4.86613281 17.58882812 4.97054688 18.4375 5.078125 C19.11941406 5.11808594 19.80132812 5.15804688 20.50390625 5.19921875 C20.83390625 4.86921875 21.16390625 4.53921875 21.50390625 4.19921875 C16.55390625 3.86921875 11.60390625 3.53921875 6.50390625 3.19921875 C6.83390625 4.51921875 7.16390625 5.83921875 7.50390625 7.19921875 C3.75390625 8.32421875 3.75390625 8.32421875 1.50390625 7.19921875 C1.17390625 8.84921875 0.84390625 10.49921875 0.50390625 12.19921875 C-0.15609375 11.86921875 -0.81609375 11.53921875 -1.49609375 11.19921875 C-1.49609375 8.88921875 -1.49609375 6.57921875 -1.49609375 4.19921875 C-4.61806853 5.50817595 -4.61806853 5.50817595 -6.49609375 8.19921875 C-7.81609375 7.86921875 -9.13609375 7.53921875 -10.49609375 7.19921875 C-8.53227368 5.69362336 -6.71346009 4.30790192 -4.49609375 3.19921875 C-8.78609375 3.19921875 -13.07609375 3.19921875 -17.49609375 3.19921875 C-12.27907067 -0.27879663 -6.12976715 0.34929399 0 0 Z " fill="#3D3B3B" transform="translate(102.49609375,20.80078125)"/>
<path d="M0 0 C4.7235023 1.54587348 4.7235023 1.54587348 7 3 C8.7013677 7.50362037 7.76620177 10.63644269 6 15 C5.34 15 4.68 15 4 15 C3.67 17.31 3.34 19.62 3 22 C2.34 22 1.68 22 1 22 C1 20.35 1 18.7 1 17 C-2.63 17 -6.26 17 -10 17 C-9.01 15.68 -8.02 14.36 -7 13 C-6.28837557 11.35202764 -5.60968047 9.68834592 -5 8 C-4.01 8.33 -3.02 8.66 -2 9 C-1.67 9.99 -1.34 10.98 -1 12 C-0.67 9.36 -0.34 6.72 0 4 C-0.515625 4.165 -1.03125 4.33 -1.5625 4.5 C-4.73363876 5.15049 -7.77218334 5.0620734 -11 5 C-11 4.34 -11 3.68 -11 3 C-7.37 3 -3.74 3 0 3 C0 2.01 0 1.02 0 0 Z " fill="#DDDDDD" transform="translate(185,87)"/>
<path d="M0 0 C10.90553195 -0.22256188 21.23075524 0.06084339 32 2 C32.495 3.485 32.495 3.485 33 5 C33.66 5.33 34.32 5.66 35 6 C35 6.66 35 7.32 35 8 C34.33097656 7.86722656 33.66195312 7.73445312 32.97265625 7.59765625 C20.7580009 5.35147131 8.40303 4.80312651 -4 5 C-4 4.34 -4 3.68 -4 3 C-2.68 2.67 -1.36 2.34 0 2 C0 1.34 0 0.68 0 0 Z " fill="#F4F4F3" transform="translate(65,132)"/>
<path d="M0 0 C4.29 0 8.58 0 13 0 C13 0.66 13 1.32 13 2 C12.01 2.33 11.02 2.66 10 3 C10.20625 3.61875 10.4125 4.2375 10.625 4.875 C10.74875 5.57625 10.8725 6.2775 11 7 C10.34 7.66 9.68 8.32 9 9 C10.32 10.32 11.64 11.64 13 13 C3.40546697 10.10933941 3.40546697 10.10933941 0 7 C0 8.32 0 9.64 0 11 C-1.98 10.34 -3.96 9.68 -6 9 C-6 6.69 -6 4.38 -6 2 C-6.66 2 -7.32 2 -8 2 C-8 5.3 -8 8.6 -8 12 C-8.66 11.67 -9.32 11.34 -10 11 C-9.67 7.7 -9.34 4.4 -9 1 C-7.72125 0.938125 -6.4425 0.87625 -5.125 0.8125 C-4.04605469 0.76029297 -4.04605469 0.76029297 -2.9453125 0.70703125 C-2.30335938 0.80371094 -1.66140625 0.90039062 -1 1 C-0.34 1.99 0.32 2.98 1 4 C1.99 3.67 2.98 3.34 4 3 C2.68 2.34 1.36 1.68 0 1 C0 0.67 0 0.34 0 0 Z " fill="#A5A3A3" transform="translate(161,206)"/>
<path d="M0 0 C1.2375 0.1546875 1.2375 0.1546875 2.5 0.3125 C4.678657 3.58048549 5.22208564 4.52155038 4.5 8.3125 C1.48059086 11.33190914 -1.14122922 13.80956491 -5.5 14.3125 C-5.5 15.3025 -5.5 16.2925 -5.5 17.3125 C-1.87 17.3125 1.76 17.3125 5.5 17.3125 C5.5 17.6425 5.5 17.9725 5.5 18.3125 C0.55 18.8075 0.55 18.8075 -4.5 19.3125 C-4.83 22.2825 -5.16 25.2525 -5.5 28.3125 C-4.84 28.6425 -4.18 28.9725 -3.5 29.3125 C-3.5 29.9725 -3.5 30.6325 -3.5 31.3125 C-2.84 31.6425 -2.18 31.9725 -1.5 32.3125 C-1.5 30.6625 -1.5 29.0125 -1.5 27.3125 C0.15 26.9825 1.8 26.6525 3.5 26.3125 C4.3125 28.5 4.3125 28.5 4.5 31.3125 C2.3125 34.1875 2.3125 34.1875 -0.5 36.3125 C-2.8125 36.125 -2.8125 36.125 -4.5 35.3125 C-2.52 34.3225 -0.54 33.3325 1.5 32.3125 C1.5 30.9925 1.5 29.6725 1.5 28.3125 C0.51 30.7875 0.51 30.7875 -0.5 33.3125 C-1.82 33.3125 -3.14 33.3125 -4.5 33.3125 C-5.16 34.6325 -5.82 35.9525 -6.5 37.3125 C-6.5 31.0425 -6.5 24.7725 -6.5 18.3125 C-7.16 17.9825 -7.82 17.6525 -8.5 17.3125 C-7.84 17.3125 -7.18 17.3125 -6.5 17.3125 C-6.5 13.0225 -6.5 8.7325 -6.5 4.3125 C-6.17 4.3125 -5.84 4.3125 -5.5 4.3125 C-5.17 6.9525 -4.84 9.5925 -4.5 12.3125 C-1.40412546 10.66572796 -1.40412546 10.66572796 1.5 8.3125 C2.00241322 5.6420947 2.00241322 5.6420947 1.5 3.3125 C0.51 2.9825 -0.48 2.6525 -1.5 2.3125 C-1.83 2.9725 -2.16 3.6325 -2.5 4.3125 C-1.84 4.3125 -1.18 4.3125 -0.5 4.3125 C-0.5 5.6325 -0.5 6.9525 -0.5 8.3125 C-1.82 7.9825 -3.14 7.6525 -4.5 7.3125 C-4.625 4.9375 -4.625 4.9375 -4.5 2.3125 C-2.5 0.3125 -2.5 0.3125 0 0 Z " fill="#242020" transform="translate(22.5,146.6875)"/>
<path d="M0 0 C1.2063208 0.00580078 1.2063208 0.00580078 2.43701172 0.01171875 C7.97696789 0.09251212 12.978213 0.66947052 18.3125 2.25 C18.8075 4.23 18.8075 4.23 19.3125 6.25 C19.9725 6.25 20.6325 6.25 21.3125 6.25 C21.3125 6.91 21.3125 7.57 21.3125 8.25 C20.32378906 7.93289062 19.33507812 7.61578125 18.31640625 7.2890625 C14.32714778 6.15328065 10.38092884 5.80797048 6.25 5.625 C5.51918213 5.58705322 4.78836426 5.54910645 4.03540039 5.51000977 C-2.87313069 5.18003444 -9.77188199 5.15136203 -16.6875 5.25 C-17.0175 4.59 -17.3475 3.93 -17.6875 3.25 C-16.57375 3.064375 -16.57375 3.064375 -15.4375 2.875 C-12.77283677 2.42899709 -12.77283677 2.42899709 -11.05859375 1.2265625 C-7.42544091 -0.26979369 -3.88976647 -0.04449988 0 0 Z " fill="#F5F4F4" transform="translate(78.6875,148.75)"/>
<path d="M0 0 C-0.61875 0.268125 -1.2375 0.53625 -1.875 0.8125 C-4.2995233 1.95556848 -4.2995233 1.95556848 -6 5 C-4.73542969 4.91621094 -3.47085938 4.83242187 -2.16796875 4.74609375 C-0.5078316 4.64292138 1.15232575 4.54007369 2.8125 4.4375 C3.64587891 4.38142578 4.47925781 4.32535156 5.33789062 4.26757812 C6.14033203 4.21923828 6.94277344 4.17089844 7.76953125 4.12109375 C8.50792236 4.0739624 9.24631348 4.02683105 10.00708008 3.97827148 C12.87203767 4.0095077 15.29468264 5.09822755 18 6 C18 7.32 18 8.64 18 10 C15.69 10 13.38 10 11 10 C11.33 8.68 11.66 7.36 12 6 C10.68 6 9.36 6 8 6 C8 9.3 8 12.6 8 16 C6.55625 15.87625 5.1125 15.7525 3.625 15.625 C2.81289063 15.55539063 2.00078125 15.48578125 1.1640625 15.4140625 C-1 15 -1 15 -3 13 C-2.625 10.875 -2.625 10.875 -2 9 C-2 9.99 -2 10.98 -2 12 C-1.01 12 -0.02 12 1 12 C1.33 10.35 1.66 8.7 2 7 C-0.31 6.67 -2.62 6.34 -5 6 C-5 9.3 -5 12.6 -5 16 C-5.33 16 -5.66 16 -6 16 C-6.33 11.05 -6.66 6.1 -7 1 C-4.53721199 -0.231394 -2.7204945 -0.07159196 0 0 Z " fill="#363534" transform="translate(41,202)"/>
<path d="M0 0 C3.4375 0.8125 3.4375 0.8125 5.4375 3.8125 C2.4675 3.4825 -0.5025 3.1525 -3.5625 2.8125 C-3.8925 3.4725 -4.2225 4.1325 -4.5625 4.8125 C-3.5725 5.1425 -2.5825 5.4725 -1.5625 5.8125 C-2.2225 5.8125 -2.8825 5.8125 -3.5625 5.8125 C-3.5625 8.7825 -3.5625 11.7525 -3.5625 14.8125 C-4.2225 14.8125 -4.8825 14.8125 -5.5625 14.8125 C-5.5625 11.8425 -5.5625 8.8725 -5.5625 5.8125 C-6.5525 5.8125 -7.5425 5.8125 -8.5625 5.8125 C-8.5625 8.7825 -8.5625 11.7525 -8.5625 14.8125 C-8.8925 14.8125 -9.2225 14.8125 -9.5625 14.8125 C-9.7578125 12.76171875 -9.953125 10.7109375 -10.1484375 8.66015625 C-10.35339844 7.74556641 -10.35339844 7.74556641 -10.5625 6.8125 C-11.2225 6.4825 -11.8825 6.1525 -12.5625 5.8125 C-12.541875 6.740625 -12.52125 7.66875 -12.5 8.625 C-12.5625 11.8125 -12.5625 11.8125 -13.5625 14.8125 C-12.5725 15.8025 -11.5825 16.7925 -10.5625 17.8125 C-12.04449902 17.36340939 -13.52305236 16.90293436 -15 16.4375 C-16.23556641 16.05464844 -16.23556641 16.05464844 -17.49609375 15.6640625 C-19.5625 14.8125 -19.5625 14.8125 -20.5625 12.8125 C-18.5825 12.4825 -16.6025 12.1525 -14.5625 11.8125 C-14.5625 11.1525 -14.5625 10.4925 -14.5625 9.8125 C-16.2125 10.4725 -17.8625 11.1325 -19.5625 11.8125 C-19.5625 10.8225 -19.5625 9.8325 -19.5625 8.8125 C-20.5525 8.8125 -21.5425 8.8125 -22.5625 8.8125 C-22.5625 8.1525 -22.5625 7.4925 -22.5625 6.8125 C-23.2225 6.1525 -23.8825 5.4925 -24.5625 4.8125 C-18.6225 4.4825 -12.6825 4.1525 -6.5625 3.8125 C-6.5625 3.1525 -6.5625 2.4925 -6.5625 1.8125 C-3.5625 -0.1875 -3.5625 -0.1875 0 0 Z " fill="#D3E6D4" transform="translate(77.5625,173.1875)"/>
<path d="M0 0 C1.26457031 0.0012085 1.26457031 0.0012085 2.5546875 0.00244141 C20.03939849 0.17209899 20.03939849 0.17209899 26.0625 4.1875 C26.0625 4.8475 26.0625 5.5075 26.0625 6.1875 C20.77650295 7.3962143 16.18024263 6.97511749 10.875 6.3125 C10.06869141 6.22097656 9.26238281 6.12945312 8.43164062 6.03515625 C5.13001069 5.64543767 2.23080745 5.24360248 -0.9375 4.1875 C-0.9375 3.8575 -0.9375 3.5275 -0.9375 3.1875 C-4.5675 3.1875 -8.1975 3.1875 -11.9375 3.1875 C-12.2675 2.5275 -12.5975 1.8675 -12.9375 1.1875 C-8.5950291 -0.03106601 -4.48401363 -0.00439954 0 0 Z " fill="#DAD8D6" transform="translate(73.9375,121.8125)"/>
<path d="M0 0 C-0.33 0.66 -0.66 1.32 -1 2 C-3.64860427 2.59355614 -6.29197322 2.74209269 -9 3 C-6.03 3.33 -3.06 3.66 0 4 C0 4.66 0 5.32 0 6 C-0.89755005 5.98428955 -0.89755005 5.98428955 -1.81323242 5.96826172 C-14.52726963 5.7753473 -26.61475245 5.77285803 -39 9 C-39 8.34 -39 7.68 -39 7 C-29.76200185 4.10990002 -21.58317155 3.64652236 -12 4 C-12 3.34 -12 2.68 -12 2 C-22.67665681 1.70681669 -22.67665681 1.70681669 -33.1328125 3.5625 C-35 4 -35 4 -39 4 C-30.65043424 -4.34956576 -10.74630461 -0.81888605 0 0 Z " fill="#C1BEB9" transform="translate(144,127)"/>
<path d="M0 0 C0.33 0 0.66 0 1 0 C1 14.19 1 28.38 1 43 C5.29 43 9.58 43 14 43 C17.89453125 43.4375 17.89453125 43.4375 20.8125 44 C22.30716797 44.2784375 22.30716797 44.2784375 23.83203125 44.5625 C24.54746094 44.706875 25.26289062 44.85125 26 45 C26 45.66 26 46.32 26 47 C26.66 47.33 27.32 47.66 28 48 C25.77077345 47.85508486 23.54162266 47.70900452 21.3125 47.5625 C20.07113281 47.48128906 18.82976562 47.40007812 17.55078125 47.31640625 C11.69821658 46.90948974 5.8494132 46.44995486 0 46 C0 30.82 0 15.64 0 0 Z " fill="#BEC6B9" transform="translate(53,115)"/>
<path d="M0 0 C0.2487793 2.98095703 0.2487793 2.98095703 0.07421875 6.7578125 C0.04777786 7.42086395 0.02133698 8.08391541 -0.00590515 8.76705933 C-0.09376252 10.88727985 -0.20286989 13.00580447 -0.3125 15.125 C-0.37574955 16.56113692 -0.43761594 17.99733547 -0.49804688 19.43359375 C-0.6493141 22.95658582 -0.8196543 26.47836332 -1 30 C-1.33 29.01 -1.66 28.02 -2 27 C-5.63 27 -9.26 27 -13 27 C-12.01 26.01 -11.02 25.02 -10 24 C-10 24.66 -10 25.32 -10 26 C-7.36 26 -4.72 26 -2 26 C-2.08378906 25.37351563 -2.16757813 24.74703125 -2.25390625 24.1015625 C-2.35574219 23.28429687 -2.45757812 22.46703125 -2.5625 21.625 C-2.66691406 20.81289062 -2.77132812 20.00078125 -2.87890625 19.1640625 C-3 17 -3 17 -2 15 C-5.96 15 -9.92 15 -14 15 C-14 14.34 -14 13.68 -14 13 C-11.36 12.67 -8.72 12.34 -6 12 C-6 9.69 -6 7.38 -6 5 C-6.66 4.67 -7.32 4.34 -8 4 C-7.67 5.32 -7.34 6.64 -7 8 C-7.99 8 -8.98 8 -10 8 C-9.67 6.35 -9.34 4.7 -9 3 C-7.35 3.33 -5.7 3.66 -4 4 C-3.77213542 6.05078125 -3.54427083 8.1015625 -3.31640625 10.15234375 C-3.18113386 12.01140229 -3.18113386 12.01140229 -2 13 C-2 8.71 -2 4.42 -2 0 C-5.96 0 -9.92 0 -14 0 C-14 -0.33 -14 -0.66 -14 -1 C-12.23086176 -1.22226864 -10.45955629 -1.42733873 -8.6875 -1.625 C-7.70136719 -1.74101562 -6.71523437 -1.85703125 -5.69921875 -1.9765625 C-3 -2 -3 -2 0 0 Z " fill="#141313" transform="translate(188,162)"/>
<path d="M0 0 C0.33 0.99 0.66 1.98 1 3 C2.98723268 3.70381157 4.98777953 4.3711811 7 5 C7.33 5.66 7.66 6.32 8 7 C7.443125 6.855625 6.88625 6.71125 6.3125 6.5625 C3.88615805 5.97230872 1.45093655 5.476571 -1 5 C-1.99 6.98 -2.98 8.96 -4 11 C-3.5875 10.484375 -3.175 9.96875 -2.75 9.4375 C-2.1725 8.963125 -1.595 8.48875 -1 8 C1.1875 8.3125 1.1875 8.3125 3 9 C3 10.32 3 11.64 3 13 C2.34 13 1.68 13 1 13 C1 12.01 1 11.02 1 10 C0.01 10.495 0.01 10.495 -1 11 C-1 11.66 -1 12.32 -1 13 C0.98 13.66 2.96 14.32 5 15 C1.80331012 17.6486859 -1.39486597 19.93992341 -5 22 C-5.33 19.69 -5.66 17.38 -6 15 C-6.99 16.32 -7.98 17.64 -9 19 C-8.40470471 15.18189915 -7.2606562 12.2719919 -5.4375 8.875 C-3.41320509 5.15755484 -3.41320509 5.15755484 -3 1 C-2.01 0.67 -1.02 0.34 0 0 Z " fill="#161414" transform="translate(28,54)"/>
<path d="M0 0 C5.61 0.33 11.22 0.66 17 1 C17 1.33 17 1.66 17 2 C11.06 2.495 11.06 2.495 5 3 C5.99 4.32 6.98 5.64 8 7 C9.32 6.67 10.64 6.34 12 6 C10.68 6 9.36 6 8 6 C8 5.01 8 4.02 8 3 C10.375 2.875 10.375 2.875 13 3 C13.66 3.66 14.32 4.32 15 5 C14.625 7.125 14.625 7.125 14 9 C11.25 9.75 11.25 9.75 8 10 C5.42149026 8.11838478 4.25983994 6.77951983 3.25 3.75 C3.12625 2.88375 3.12625 2.88375 3 2 C2.34 2 1.68 2 1 2 C1 4.97 1 7.94 1 11 C0.34 11 -0.32 11 -1 11 C-1.33 9.02 -1.66 7.04 -2 5 C-3.65 5.66 -5.3 6.32 -7 7 C-6.67 6.01 -6.34 5.02 -6 4 C-6.99 3.67 -7.98 3.34 -9 3 C-7 1 -7 1 -4.4375 0.8125 C-2 1 -2 1 -1 2 C-0.67 1.34 -0.34 0.68 0 0 Z " fill="#D0E4D2" transform="translate(85,177)"/>
<path d="M0 0 C1.65 0 3.3 0 5 0 C5.02685938 2.14576637 5.04633088 4.29162645 5.0625 6.4375 C5.07410156 7.63246094 5.08570313 8.82742187 5.09765625 10.05859375 C5 13 5 13 4 14 C2.35769636 14.1245486 0.70947724 14.17568524 -0.9375 14.1875 C-1.83339844 14.20167969 -2.72929687 14.21585938 -3.65234375 14.23046875 C-6 14 -6 14 -8 12 C-8.125 8.875 -8.125 8.875 -8 6 C-4.37 6.66 -0.74 7.32 3 8 C2.01 5.36 1.02 2.72 0 0 Z " fill="#E6E5E5" transform="translate(181,142)"/>
<path d="M0 0 C1.4540625 0.0309375 1.4540625 0.0309375 2.9375 0.0625 C2.9375 0.3925 2.9375 0.7225 2.9375 1.0625 C1.7309375 1.248125 1.7309375 1.248125 0.5 1.4375 C-0.345625 1.64375 -1.19125 1.85 -2.0625 2.0625 C-2.3925 2.7225 -2.7225 3.3825 -3.0625 4.0625 C2.2175 4.0625 7.4975 4.0625 12.9375 4.0625 C11.9475 4.3925 10.9575 4.7225 9.9375 5.0625 C9.9375 8.3625 9.9375 11.6625 9.9375 15.0625 C9.6075 15.0625 9.2775 15.0625 8.9375 15.0625 C8.9375 12.0925 8.9375 9.1225 8.9375 6.0625 C7.6175 6.0625 6.2975 6.0625 4.9375 6.0625 C4.9375 6.7225 4.9375 7.3825 4.9375 8.0625 C5.9275 8.3925 6.9175 8.7225 7.9375 9.0625 C6.1875 10.625 6.1875 10.625 3.9375 12.0625 C1.6875 11.75 1.6875 11.75 -0.0625 11.0625 C1.2575 10.7325 2.5775 10.4025 3.9375 10.0625 C3.6075 9.0725 3.2775 8.0825 2.9375 7.0625 C-0.0325 6.5675 -0.0325 6.5675 -3.0625 6.0625 C-3.0625 9.0325 -3.0625 12.0025 -3.0625 15.0625 C-3.3925 15.0625 -3.7225 15.0625 -4.0625 15.0625 C-4.0625 12.0925 -4.0625 9.1225 -4.0625 6.0625 C-5.0525 6.0625 -6.0425 6.0625 -7.0625 6.0625 C-7.0625 9.3625 -7.0625 12.6625 -7.0625 16.0625 C-9.26213566 13.86286434 -9.63299648 13.06902461 -10.0625 10.0625 C-9.625 7.3125 -9.625 7.3125 -9.0625 5.0625 C-7.7425 5.0625 -6.4225 5.0625 -5.0625 5.0625 C-4.918125 4.423125 -4.77375 3.78375 -4.625 3.125 C-3.73376283 -0.14286963 -3.55757083 0.07260349 0 0 Z " fill="#403E3E" transform="translate(142.0625,201.9375)"/>
<path d="M0 0 C0.928125 0.2784375 0.928125 0.2784375 1.875 0.5625 C4.04160178 1.23686176 4.04160178 1.23686176 6 0 C8.7235195 0.08924852 11.41013311 0.23353332 14.125 0.4375 C15.25615234 0.51581055 15.25615234 0.51581055 16.41015625 0.59570312 C18.2737937 0.72545004 20.13694996 0.86207488 22 1 C22 1.66 22 2.32 22 3 C21.01 3 20.02 3 19 3 C19 5.97 19 8.94 19 12 C18.67 12 18.34 12 18 12 C17.67 10.02 17.34 8.04 17 6 C15.02 6 13.04 6 11 6 C11.99 6.33 12.98 6.66 14 7 C14 7.66 14 8.32 14 9 C12.35 9 10.7 9 9 9 C9 7.35 9 5.7 9 4 C8.01 3.67 7.02 3.34 6 3 C6 6.3 6 9.6 6 13 C5.67 13 5.34 13 5 13 C4.67 10.03 4.34 7.06 4 4 C3.01 3.67 2.02 3.34 1 3 C1 6.3 1 9.6 1 13 C0.67 13 0.34 13 0 13 C-0.19658808 11.58456585 -0.38187546 10.16755969 -0.5625 8.75 C-0.66691406 7.96109375 -0.77132812 7.1721875 -0.87890625 6.359375 C-1.00027349 3.99467126 -0.69633257 2.2488963 0 0 Z " fill="#464444" transform="translate(61,205)"/>
<path d="M0 0 C0.66 0 1.32 0 2 0 C2 0.66 2 1.32 2 2 C1.34 2 0.68 2 0 2 C0.66 3.093125 1.32 4.18625 2 5.3125 C3.58464929 7.93707538 4 8.8256378 4 12 C2.62437146 10.71034824 1.29233607 9.37310707 0 8 C0 7.34 0 6.68 0 6 C-0.99 6 -1.98 6 -3 6 C-3.33 7.32 -3.66 8.64 -4 10 C-4 9.34 -4 8.68 -4 8 C-5.65 9.32 -7.3 10.64 -9 12 C-9.66 11.67 -10.32 11.34 -11 11 C-10.34 10.38125 -9.68 9.7625 -9 9.125 C-6.7715451 7.24362573 -6.7715451 7.24362573 -7 5 C-9.76276177 5.52268466 -12.3260876 6.10869587 -15 7 C-14.6875 5.125 -14.6875 5.125 -14 3 C-10.6773117 0.78487447 -9.71729219 0.79747477 -5.875 0.9375 C-4.25076856 0.99164105 -2.62500568 1.02038538 -1 1 C-0.67 0.67 -0.34 0.34 0 0 Z " fill="#DAD9D9" transform="translate(48,35)"/>
<path d="M0 0 C7.92 0 15.84 0 24 0 C20.13209997 1.93395001 18.8499541 2.23289353 14.75 2.125 C12.39875 2.063125 12.39875 2.063125 10 2 C10 5.3 10 8.6 10 12 C9.01 11.01 8.02 10.02 7 9 C4.37429296 8.74930087 4.37429296 8.74930087 2 9 C2 8.01 2 7.02 2 6 C2.99 6 3.98 6 5 6 C4.67 4.35 4.34 2.7 4 1 C2.68 0.67 1.36 0.34 0 0 Z " fill="#858383" transform="translate(113,206)"/>
<path d="M0 0 C3.63 0 7.26 0 11 0 C11 0.33 11 0.66 11 1 C9.35 1.33 7.7 1.66 6 2 C6.66 2.66 7.32 3.32 8 4 C8 4.99 8 5.98 8 7 C7.01 7 6.02 7 5 7 C4.67 6.34 4.34 5.68 4 5 C3.67 5.99 3.34 6.98 3 8 C5.97 8 8.94 8 12 8 C9.51047079 10.66735273 7.36591866 12.55746343 4 14 C3.01 12.02 2.02 10.04 1 8 C0.67 8 0.34 8 0 8 C0 5.36 0 2.72 0 0 Z " fill="#ABA9A9" transform="translate(17,101)"/>
<path d="M0 0 C4 0 4 0 6.375 2.1875 C7.24125 3.115625 8.1075 4.04375 9 5 C10.96271781 6.71679808 12.97712601 8.35347466 15 10 C11.66666667 12.66666667 8.33333333 15.33333333 5 18 C5.309375 17.4225 5.61875 16.845 5.9375 16.25 C6.92583364 14.15705816 7.5168613 12.25464725 8 10 C5.36 10 2.72 10 0 10 C0.33 8.68 0.66 7.36 1 6 C1 6.66 1 7.32 1 8 C2.65 8 4.3 8 6 8 C3.27809315 3.77895001 3.27809315 3.77895001 0 0 Z " fill="#494747" transform="translate(150,34)"/>
<path d="M0 0 C0.639375 0.165 1.27875 0.33 1.9375 0.5 C5.97586652 1.15932515 9.91807258 1.08003779 14 1 C13.34 1.66 12.68 2.32 12 3 C12 4.32 12 5.64 12 7 C11 8 11 8 7.6875 8.375 C4 8 4 8 1.5625 5.6875 C0 3 0 3 0 0 Z " fill="#7D7B7B" transform="translate(73,26)"/>
<path d="M0 0 C4.24986479 -0.08842548 8.49948746 -0.14086428 12.75 -0.1875 C14.53083984 -0.22520508 14.53083984 -0.22520508 16.34765625 -0.26367188 C24.34282932 -0.32920608 31.35233378 0.66086899 39 3 C39 3.66 39 4.32 39 5 C38.33097656 4.86722656 37.66195312 4.73445312 36.97265625 4.59765625 C24.7580009 2.35147131 12.40303 1.80312651 0 2 C0 1.34 0 0.68 0 0 Z " fill="#C2BFBB" transform="translate(61,135)"/>
<path d="M0 0 C-0.57344937 2.86724686 -0.8614515 3.8614515 -3 6 C-5.1640625 6.4140625 -5.1640625 6.4140625 -7.625 6.625 C-8.44226562 6.69976562 -9.25953125 6.77453125 -10.1015625 6.8515625 C-10.72804687 6.90054688 -11.35453125 6.94953125 -12 7 C-12 7.66 -12 8.32 -12 9 C-12.66 9 -13.32 9 -14 9 C-14.36407767 4.50970874 -14.36407767 4.50970874 -12.75 2.25 C-8.81474413 -0.56089705 -4.70351008 -0.09045212 0 0 Z " fill="#6E6C6C" transform="translate(43,48)"/>
<path d="M0 0 C0.33 0 0.66 0 1 0 C1 5.61 1 11.22 1 17 C0.67 17 0.34 17 0 17 C0 15.35 0 13.7 0 12 C-3.63 12 -7.26 12 -11 12 C-10.01 10.68 -9.02 9.36 -8 8 C-7.28837557 6.35202764 -6.60968047 4.68834592 -6 3 C-5.01 3.33 -4.02 3.66 -3 4 C-1.8125 6.5625 -1.8125 6.5625 -1 9 C-0.67 6.03 -0.34 3.06 0 0 Z " fill="#111010" transform="translate(186,92)"/>
<path d="M0 0 C3.63 0 7.26 0 11 0 C11 0.33 11 0.66 11 1 C7.7 1 4.4 1 1 1 C1.33 4.3 1.66 7.6 2 11 C2.99 11.33 3.98 11.66 5 12 C5 10.68 5 9.36 5 8 C4.34 8 3.68 8 3 8 C3.33 7.01 3.66 6.02 4 5 C5.32 5.66 6.64 6.32 8 7 C8.3125 9.25 8.3125 9.25 8 12 C5.39110249 14.53838677 3.45779049 15.84740317 0 17 C0 11.39 0 5.78 0 0 Z " fill="#D5D4D4" transform="translate(17,143)"/>
<path d="M0 0 C4.29 0 8.58 0 13 0 C13 0.66 13 1.32 13 2 C12.01 2.33 11.02 2.66 10 3 C10.20625 3.61875 10.4125 4.2375 10.625 4.875 C10.74875 5.57625 10.8725 6.2775 11 7 C10.34 7.66 9.68 8.32 9 9 C10.32 10.32 11.64 11.64 13 13 C11.5164999 12.57742724 10.03823576 12.13643678 8.5625 11.6875 C7.73878906 11.44386719 6.91507813 11.20023438 6.06640625 10.94921875 C5.38449219 10.63597656 4.70257813 10.32273438 4 10 C3.67 9.01 3.34 8.02 3 7 C4.98 7 6.96 7 9 7 C9 6.01 9 5.02 9 4 C7.02 4.33 5.04 4.66 3 5 C3.33 4.34 3.66 3.68 4 3 C2.68 2.34 1.36 1.68 0 1 C0 0.67 0 0.34 0 0 Z " fill="#6A6868" transform="translate(161,206)"/>
<path d="M0 0 C1.32 0.33 2.64 0.66 4 1 C4.14285714 8.42857143 4.14285714 8.42857143 3 12 C2.34 12 1.68 12 1 12 C1 19.59 1 27.18 1 35 C0.67 35 0.34 35 0 35 C0 23.45 0 11.9 0 0 Z " fill="#D1D1D1" transform="translate(187,124)"/>
<path d="M0 0 C0.78688445 2.77723925 1.11949924 5.22610077 1.09765625 8.109375 C1.09282227 9.24052734 1.09282227 9.24052734 1.08789062 10.39453125 C1.07951172 11.17183594 1.07113281 11.94914063 1.0625 12.75 C1.05798828 13.54277344 1.05347656 14.33554688 1.04882812 15.15234375 C1.03708565 17.10159508 1.01915146 19.05080738 1 21 C0.67 21 0.34 21 0 21 C-0.33 18.03 -0.66 15.06 -1 12 C-2.32 12 -3.64 12 -5 12 C-5.28780586 8.94925785 -5.45787911 6.03816258 -5 3 C-2.5 0.9375 -2.5 0.9375 0 0 Z " fill="#969595" transform="translate(15,143)"/>
<path d="M0 0 C0.8353125 0.8971875 0.8353125 0.8971875 1.6875 1.8125 C3.91352195 4.10472691 3.91352195 4.10472691 6.75 5.5 C7.86375 6.2425 7.86375 6.2425 9 7 C9 8.32 9 9.64 9 11 C8.21625 10.79375 7.4325 10.5875 6.625 10.375 C5.75875 10.25125 4.8925 10.1275 4 10 C3.34 10.66 2.68 11.32 2 12 C-0.125 11.625 -0.125 11.625 -2 11 C-2 10.34 -2 9.68 -2 9 C-1.01 8.67 -0.02 8.34 1 8 C-0.32 7.34 -1.64 6.68 -3 6 C-2.01 5.67 -1.02 5.34 0 5 C-0.2784375 4.0409375 -0.2784375 4.0409375 -0.5625 3.0625 C-0.706875 2.381875 -0.85125 1.70125 -1 1 C-0.67 0.67 -0.34 0.34 0 0 Z " fill="#646262" transform="translate(141,23)"/>
<path d="M0 0 C0.82346924 0.04374756 1.64693848 0.08749512 2.49536133 0.13256836 C8.79935424 0.53945738 14.65619815 1.61732698 20.625 3.75 C20.625 4.41 20.625 5.07 20.625 5.75 C19.63628906 5.43289062 18.64757812 5.11578125 17.62890625 4.7890625 C13.63964778 3.65328065 9.69342884 3.30797048 5.5625 3.125 C4.83168213 3.08705322 4.10086426 3.04910645 3.34790039 3.01000977 C-3.56063069 2.68003444 -10.45938199 2.65136203 -17.375 2.75 C-17.705 2.09 -18.035 1.43 -18.375 0.75 C-12.15169831 -0.06983615 -6.26318207 -0.35340638 0 0 Z " fill="#BBB7B2" transform="translate(79.375,151.25)"/>
<path d="M0 0 C0.84127441 -0.01305176 1.68254883 -0.02610352 2.54931641 -0.03955078 C3.34644043 -0.04067871 4.14356445 -0.04180664 4.96484375 -0.04296875 C5.68148193 -0.04707764 6.39812012 -0.05118652 7.13647461 -0.05541992 C9.0625 0.1875 9.0625 0.1875 12.0625 2.1875 C8.93988211 3.11317366 6.20686037 3.2807926 2.95703125 3.21484375 C1.97283203 3.20259766 0.98863281 3.19035156 -0.02539062 3.17773438 C-2.0723421 3.14290911 -4.11922759 3.10392774 -6.16601562 3.06054688 C-11.72425952 2.99906988 -16.70889724 3.3168277 -22.09106445 4.75219727 C-23.9375 5.1875 -23.9375 5.1875 -26.9375 5.1875 C-20.34123524 -1.40876476 -8.6498344 0.07971448 0 0 Z " fill="#C1BEB9" transform="translate(131.9375,121.8125)"/>
<path d="M0 0 C1.86398438 0.01353516 1.86398438 0.01353516 3.765625 0.02734375 C6.80229004 0.05070271 9.83853853 0.08345717 12.875 0.125 C12.875 0.785 12.875 1.445 12.875 2.125 C11.97744995 2.10928955 11.97744995 2.10928955 11.06176758 2.09326172 C-4.37650728 1.82492623 -4.37650728 1.82492623 -19.6640625 3.6875 C-22.125 4.125 -22.125 4.125 -26.125 4.125 C-20.12662539 -1.87337461 -7.79231498 -0.10845835 0 0 Z " fill="#BEBAB5" transform="translate(131.125,151.875)"/>
<path d="M0 0 C0 0.99 0 1.98 0 3 C-1.22976562 3.06058594 -2.45953125 3.12117187 -3.7265625 3.18359375 C-5.35938427 3.26805005 -6.99219627 3.35269547 -8.625 3.4375 C-9.43324219 3.47681641 -10.24148437 3.51613281 -11.07421875 3.55664062 C-15.45150865 3.78796082 -19.68547281 4.16920917 -24 5 C-24 4.34 -24 3.68 -24 3 C-24.66 2.67 -25.32 2.34 -26 2 C-17.24996282 0.3960652 -8.89252296 -0.26197285 0 0 Z " fill="#F4F4F3" transform="translate(135,132)"/>
<path d="M0 0 C3.0625 0.1875 3.0625 0.1875 5.0625 2.1875 C4.52678571 5.72321429 4.52678571 5.72321429 3.0625 7.1875 C0.125 7.375 0.125 7.375 -2.9375 7.1875 C-3.5975 6.5275 -4.2575 5.8675 -4.9375 5.1875 C-4.34711977 1.29099049 -4.08138685 0.26051405 0 0 Z " fill="#D4E7D5" transform="translate(136.9375,179.8125)"/>
<path d="M0 0 C2.62386487 3.06117568 3 3.73173127 3 8 C3.66 8 4.32 8 5 8 C5 8.66 5 9.32 5 10 C1.04 10 -2.92 10 -7 10 C-6.401875 9.278125 -5.80375 8.55625 -5.1875 7.8125 C-3.22577804 5.29028605 -1.58276017 2.7698303 0 0 Z " fill="#2B2828" transform="translate(181,127)"/>
<path d="M0 0 C0.66 0.66 1.32 1.32 2 2 C1.625 4.625 1.625 4.625 1 7 C-1.33294775 7.04241723 -3.66702567 7.04092937 -6 7 C-7 6 -7 6 -7.0625 3.4375 C-7.041875 2.633125 -7.02125 1.82875 -7 1 C-4.48718205 -0.25640898 -2.78302919 -0.20872719 0 0 Z " fill="#D3E6D5" transform="translate(128,180)"/>
<path d="M0 0 C-0.33 0.99 -0.66 1.98 -1 3 C-1.70125 3.06058594 -2.4025 3.12117187 -3.125 3.18359375 C-4.07375 3.26738281 -5.0225 3.35117188 -6 3.4375 C-7.49853516 3.56898438 -7.49853516 3.56898438 -9.02734375 3.703125 C-11.5593649 3.95599439 -14.04903707 4.29867701 -16.5625 4.6875 C-17.696875 4.790625 -18.83125 4.89375 -20 5 C-20.66 4.34 -21.32 3.68 -22 3 C-14.50298299 0.563832 -7.87690257 -0.41136629 0 0 Z " fill="#F2F2F1" transform="translate(128,145)"/>
<path d="M0 0 C0 0.66 0 1.32 0 2 C-3.26987035 2.22587773 -6.54079281 2.42766605 -9.8125 2.625 C-11.2056543 2.72167969 -11.2056543 2.72167969 -12.62695312 2.8203125 C-13.51962891 2.871875 -14.41230469 2.9234375 -15.33203125 2.9765625 C-16.56530151 3.05511475 -16.56530151 3.05511475 -17.82348633 3.13525391 C-20 3 -20 3 -23 1 C-15.52958342 -0.95945353 -7.50621711 -2.50207237 0 0 Z " fill="#F3F3F2" transform="translate(132,129)"/>
<path d="M0 0 C1.0528418 0.01353516 1.0528418 0.01353516 2.12695312 0.02734375 C3.85561525 0.05086296 5.58410145 0.08673287 7.3125 0.125 C8.23854802 4.15159396 8.16285239 7.06220525 7.3125 11.125 C6.6525 10.795 5.9925 10.465 5.3125 10.125 C5.3125 7.815 5.3125 5.505 5.3125 3.125 C2.19052522 4.4339572 2.19052522 4.4339572 0.3125 7.125 C-1.0075 6.795 -2.3275 6.465 -3.6875 6.125 C-1.72367993 4.61940461 0.09513366 3.23368317 2.3125 2.125 C-1.9775 2.125 -6.2675 2.125 -10.6875 2.125 C-7.00662647 -0.32891569 -4.24394412 -0.10302759 0 0 Z " fill="#2A2727" transform="translate(95.6875,21.875)"/>
<path d="M0 0 C0.33 0.66 0.66 1.32 1 2 C3.11846285 2.68729254 3.11846285 2.68729254 5.5625 3.125 C6.80193359 3.37636719 6.80193359 3.37636719 8.06640625 3.6328125 C8.70449219 3.75398437 9.34257812 3.87515625 10 4 C10 4.66 10 5.32 10 6 C8.35 6.33 6.7 6.66 5 7 C4.67 8.98 4.34 10.96 4 13 C3.01 12.67 2.02 12.34 1 12 C0.03929566 9.11788698 -0.10581883 7.30149956 -0.0625 4.3125 C-0.05347656 3.50425781 -0.04445313 2.69601563 -0.03515625 1.86328125 C-0.02355469 1.24839844 -0.01195313 0.63351563 0 0 Z " fill="#CFCDCD" transform="translate(17,166)"/>
<path d="M0 0 C0.99 0 1.98 0 3 0 C3 1.32 3 2.64 3 4 C4.65 3.67 6.3 3.34 8 3 C8.625 5.375 8.625 5.375 9 8 C7 10 7 10 4.625 10.375 C2 10 2 10 -0.375 8.25 C-2 6 -2 6 -1.75 3.75 C-1.5025 3.1725 -1.255 2.595 -1 2 C-0.608125 2.804375 -0.21625 3.60875 0.1875 4.4375 C1.76948191 7.23064738 1.76948191 7.23064738 4.6875 7.8125 C5.8321875 7.9053125 5.8321875 7.9053125 7 8 C7 7.34 7 6.68 7 6 C5.35 6 3.7 6 2 6 C1.34 4.02 0.68 2.04 0 0 Z " fill="#CDE3CF" transform="translate(145,178)"/>
<path d="M0 0 C4.7235023 1.54587348 4.7235023 1.54587348 7 3 C8.7013677 7.50362037 7.76620177 10.63644269 6 15 C5.34 14.67 4.68 14.34 4 14 C4.33 13.34 4.66 12.68 5 12 C5.04022391 9.6670134 5.04320247 7.33293334 5 5 C1.60832521 3.86944174 -0.54489981 4.2768395 -4 5 C-6.33301986 5.03824623 -8.66711508 5.04574284 -11 5 C-11 4.34 -11 3.68 -11 3 C-7.37 3 -3.74 3 0 3 C0 2.01 0 1.02 0 0 Z " fill="#413E3E" transform="translate(185,87)"/>
<path d="M0 0 C0.66 0.33 1.32 0.66 2 1 C2 1.66 2 2.32 2 3 C2.66 3 3.32 3 4 3 C4.33 4.98 4.66 6.96 5 9 C4.67 8.34 4.34 7.68 4 7 C0.04 7.99 -3.92 8.98 -8 10 C-3.25 4.125 -3.25 4.125 -1 3 C-0.67 2.01 -0.34 1.02 0 0 Z " fill="#322F2F" transform="translate(179,70)"/>
<path d="M0 0 C4.95 0 9.9 0 15 0 C15 0.33 15 0.66 15 1 C12.36 1.33 9.72 1.66 7 2 C8.32 2.66 9.64 3.32 11 4 C10.67 5.32 10.34 6.64 10 8 C7.625 7.8125 7.625 7.8125 5 7 C3.875 4.5625 3.875 4.5625 3 2 C2.01 1.34 1.02 0.68 0 0 Z " fill="#B4B2B2" transform="translate(99,21)"/>
<path d="M0 0 C0 2.64 0 5.28 0 8 C-6.0546875 8.1953125 -6.0546875 8.1953125 -8 8 C-8.66 7.34 -9.32 6.68 -10 6 C-9.625 3.875 -9.625 3.875 -9 2 C-9 2.99 -9 3.98 -9 5 C-7.35 4.34 -5.7 3.68 -4 3 C-4 2.34 -4 1.68 -4 1 C-2 0 -2 0 0 0 Z " fill="#908F8F" transform="translate(48,209)"/>
<path d="M0 0 C0.99 0.66 1.98 1.32 3 2 C3.66 1.67 4.32 1.34 5 1 C5.33 3.31 5.66 5.62 6 8 C3.36 8 0.72 8 -2 8 C-1.125 1.125 -1.125 1.125 0 0 Z " fill="#CBCACA" transform="translate(180,180)"/>
<path d="M0 0 C1.65 0 3.3 0 5 0 C5 3.3 5 6.6 5 10 C4.01 9.34 3.02 8.68 2 8 C-0.15274948 8.30840599 -0.15274948 8.30840599 -2 9 C-2.33 7.68 -2.66 6.36 -3 5 C-2.01 4.34 -1.02 3.68 0 3 C0 2.01 0 1.02 0 0 Z " fill="#8E8B8B" transform="translate(106,208)"/>
<path d="M0 0 C0 0.66 0 1.32 0 2 C0.66 2.33 1.32 2.66 2 3 C-2.62 3 -7.24 3 -12 3 C-10 -1 -10 -1 -8.25 -1.875 C-5.17969854 -2.0455723 -2.84159626 -1.09788947 0 0 Z " fill="#C6C4C4" transform="translate(47,204)"/>
<path d="M0 0 C1.2375 0.1546875 1.2375 0.1546875 2.5 0.3125 C4.65502531 3.54503796 4.96856135 4.56400923 4.5 8.3125 C3 10.125 3 10.125 1.5 11.3125 C0.84 10.9825 0.18 10.6525 -0.5 10.3125 C0.16 9.6525 0.82 8.9925 1.5 8.3125 C1.66687448 5.72895782 1.66687448 5.72895782 1.5 3.3125 C0.51 2.9825 -0.48 2.6525 -1.5 2.3125 C-1.83 2.9725 -2.16 3.6325 -2.5 4.3125 C-1.84 4.3125 -1.18 4.3125 -0.5 4.3125 C-0.5 5.6325 -0.5 6.9525 -0.5 8.3125 C-1.82 7.9825 -3.14 7.6525 -4.5 7.3125 C-4.625 4.9375 -4.625 4.9375 -4.5 2.3125 C-2.5 0.3125 -2.5 0.3125 0 0 Z " fill="#1B1919" transform="translate(22.5,146.6875)"/>
<path d="M0 0 C1.4783226 2.95664519 1.06032783 5.74229737 1 9 C1.99 9.33 2.98 9.66 4 10 C4 16.93 4 23.86 4 31 C3.67 31 3.34 31 3 31 C3 25.06 3 19.12 3 13 C1.68 12.34 0.36 11.68 -1 11 C-1.92678615 7.42525344 -2.40411569 5.0507008 -1.0625 1.5625 C-0.711875 1.046875 -0.36125 0.53125 0 0 Z " fill="#787676" transform="translate(12,90)"/>
<path d="M0 0 C1.65 0 3.3 0 5 0 C5.02685938 2.14576637 5.04633088 4.29162645 5.0625 6.4375 C5.07410156 7.63246094 5.08570313 8.82742187 5.09765625 10.05859375 C5 13 5 13 4 14 C2.31391034 14.07205511 0.62499341 14.08386068 -1.0625 14.0625 C-1.98160156 14.05347656 -2.90070313 14.04445312 -3.84765625 14.03515625 C-4.55792969 14.02355469 -5.26820313 14.01195312 -6 14 C-6 13.01 -6 12.02 -6 11 C-5.46375 11.165 -4.9275 11.33 -4.375 11.5 C-1.54113991 12.09660212 1.1119806 12.0656368 4 12 C3.52309796 10.37433394 3.04340334 8.74948689 2.5625 7.125 C2.29566406 6.22007812 2.02882812 5.31515625 1.75390625 4.3828125 C1.07386174 2.01724619 1.07386174 2.01724619 0 0 Z " fill="#8E8C8B" transform="translate(181,142)"/>
<path d="M0 0 C-0.020625 1.11375 -0.04125 2.2275 -0.0625 3.375 C-0.26380718 6.83215921 -0.26380718 6.83215921 1 9 C0.01 8.67 -0.98 8.34 -2 8 C-2.33 5.69 -2.66 3.38 -3 1 C-5.97 1 -8.94 1 -12 1 C-12.33 1.99 -12.66 2.98 -13 4 C-13 2.68 -13 1.36 -13 0 C-13.99 -0.33 -14.98 -0.66 -16 -1 C-10.19817714 -2.71905862 -5.61126434 -1.87042145 0 0 Z " fill="#3F3D3D" transform="translate(90,26)"/>
<path d="M0 0 C6.27 0 12.54 0 19 0 C13.68421053 3.98684211 13.68421053 3.98684211 10 5 C8 4.125 8 4.125 6 3 C3.33290931 2.83249586 3.33290931 2.83249586 1 3 C0.67 2.01 0.34 1.02 0 0 Z " fill="#D4D3D3" transform="translate(81,23)"/>
<path d="M0 0 C2.5625 0.25 2.5625 0.25 5.5625 2.25 C5.97093923 4.96203652 5.69586867 7.4937142 5.5625 10.25 C4.9025 10.25 4.2425 10.25 3.5625 10.25 C3.2325 8.27 2.9025 6.29 2.5625 4.25 C0.9125 4.91 -0.7375 5.57 -2.4375 6.25 C-2.1075 5.26 -1.7775 4.27 -1.4375 3.25 C-2.4275 2.92 -3.4175 2.59 -4.4375 2.25 C-2.4375 0.25 -2.4375 0.25 0 0 Z " fill="#C6DFC8" transform="translate(80.4375,177.75)"/>
<path d="M0 0 C0.66 0 1.32 0 2 0 C2 0.66 2 1.32 2 2 C1.34 2 0.68 2 0 2 C0.66 3.093125 1.32 4.18625 2 5.3125 C3.58464929 7.93707538 4 8.8256378 4 12 C3.60167969 11.50628906 3.20335938 11.01257812 2.79296875 10.50390625 C1.99826172 9.54291016 1.99826172 9.54291016 1.1875 8.5625 C0.66542969 7.92441406 0.14335938 7.28632812 -0.39453125 6.62890625 C-2.00834411 4.7451725 -2.00834411 4.7451725 -5 4 C-4.67 3.34 -4.34 2.68 -4 2 C-5.258125 2.33 -6.51625 2.66 -7.8125 3 C-10.38987302 3.67603227 -12.30212925 4 -15 4 C-11.85819586 1.20240284 -9.98688002 0.6653561 -5.8125 0.875 C-4.20933805 0.94541707 -2.60469705 0.99415411 -1 1 C-0.67 0.67 -0.34 0.34 0 0 Z " fill="#3C3939" transform="translate(48,35)"/>
<path d="M0 0 C-0.33 1.32 -0.66 2.64 -1 4 C-1.66 4 -2.32 4 -3 4 C-3.33 4.99 -3.66 5.98 -4 7 C-5.32 7 -6.64 7 -8 7 C-8 5.68 -8 4.36 -8 3 C-7.34 3 -6.68 3 -6 3 C-6.33 2.01 -6.66 1.02 -7 0 C-4.3333581 -1.33332095 -2.83319697 -0.67102033 0 0 Z " fill="#D3D2D2" transform="translate(69,30)"/>
<path d="M0 0 C2.96175123 0.61277612 4.38058783 1.25372522 7 3 C6.79375 3.763125 6.5875 4.52625 6.375 5.3125 C5.66608797 8.21885944 5.66608797 8.21885944 8 11 C6.5164999 10.57742724 5.03823576 10.13643678 3.5625 9.6875 C2.73878906 9.44386719 1.91507812 9.20023438 1.06640625 8.94921875 C0.38449219 8.63597656 -0.29742187 8.32273438 -1 8 C-1.33 7.01 -1.66 6.02 -2 5 C0.31 5.33 2.62 5.66 5 6 C3.36587557 4.29159719 2.13093906 3.06546953 0 2 C0 1.34 0 0.68 0 0 Z " fill="#D2E5D4" transform="translate(111,178)"/>
<path d="M0 0 C2.31 0 4.62 0 7 0 C5.68 0.99 4.36 1.98 3 3 C3.99 4.485 3.99 4.485 5 6 C5 7.32 5 8.64 5 10 C1.7 9.67 -1.6 9.34 -5 9 C-5 8.67 -5 8.34 -5 8 C-2.36 8 0.28 8 3 8 C2.319375 7.236875 1.63875 6.47375 0.9375 5.6875 C0.298125 4.800625 -0.34125 3.91375 -1 3 C-0.67 2.01 -0.34 1.02 0 0 Z " fill="#121111" transform="translate(179,140)"/>
<path d="M0 0 C2.64 0 5.28 0 8 0 C8.33 1.32 8.66 2.64 9 4 C5.25 5.125 5.25 5.125 3 4 C3 3.01 3 2.02 3 1 C2.34 1 1.68 1 1 1 C1 4.3 1 7.6 1 11 C0.34 10.67 -0.32 10.34 -1 10 C-0.67 6.7 -0.34 3.4 0 0 Z " fill="#7A7877" transform="translate(152,207)"/>
<path d="M0 0 C0 0.33 0 0.66 0 1 C-0.97839844 1.04898438 -1.95679688 1.09796875 -2.96484375 1.1484375 C-10.18028507 1.55993759 -16.96647961 2.27044581 -24 4 C-25.32 4 -26.64 4 -28 4 C-22.14005151 -1.85994849 -7.56245265 -1.83951551 0 0 Z " fill="#BDBAB5" transform="translate(133,127)"/>
<path d="M0 0 C0.99 0.495 0.99 0.495 2 1 C1.67 1.99 1.34 2.98 1 4 C3.97 4 6.94 4 10 4 C7.51047079 6.66735273 5.36591866 8.55746343 2 10 C-0.4294516 6.3558226 -0.16179575 4.28758728 0 0 Z " fill="#828080" transform="translate(19,105)"/>
<path d="M0 0 C-1.15173355 2.46800047 -2.04783565 4.04783565 -4 6 C-3.67 6.66 -3.34 7.32 -3 8 C-4.98 8.33 -6.96 8.66 -9 9 C-7.02 6.36 -5.04 3.72 -3 1 C-3.99 1.66 -4.98 2.32 -6 3 C-8.6875 3.125 -8.6875 3.125 -11 3 C-10.67 2.01 -10.34 1.02 -10 0 C-9.34 0.33 -8.68 0.66 -8 1 C-7.38125 0.67 -6.7625 0.34 -6.125 0 C-3.58494029 -1.19532222 -2.58441461 -0.92300522 0 0 Z " fill="#3A3737" transform="translate(42,40)"/>
<path d="M0 0 C0.33 0 0.66 0 1 0 C1 5.28 1 10.56 1 16 C-0.32 15.67 -1.64 15.34 -3 15 C-3.14285714 7.57142857 -3.14285714 7.57142857 -2 4 C-1.34 4 -0.68 4 0 4 C0 2.68 0 1.36 0 0 Z " fill="#E7E7E7" transform="translate(15,84)"/>
<path d="M0 0 C0.33 0 0.66 0 1 0 C1.33 2.64 1.66 5.28 2 8 C3.65 7.67 5.3 7.34 7 7 C3.25 10 3.25 10 1 10 C1 10.99 1 11.98 1 13 C4.63 13 8.26 13 12 13 C12 13.33 12 13.66 12 14 C10.04310341 14.22142255 8.08438048 14.4267568 6.125 14.625 C5.03445312 14.74101562 3.94390625 14.85703125 2.8203125 14.9765625 C1.42425781 14.98816406 1.42425781 14.98816406 0 15 C-0.66 14.34 -1.32 13.68 -2 13 C-1.34 13 -0.68 13 0 13 C0 8.71 0 4.42 0 0 Z " fill="#302C2C" transform="translate(16,151)"/>
<path d="M0 0 C1.9451 2.91765 2.45276317 4.62537285 3 8 C2.34 7.34 1.68 6.68 1 6 C-0.65 7.65 -2.3 9.3 -4 11 C-5.5 9.6875 -5.5 9.6875 -7 8 C-7 7.01 -7 6.02 -7 5 C-3.125 5.875 -3.125 5.875 -2 7 C-1.34 4.69 -0.68 2.38 0 0 Z " fill="#232020" transform="translate(179,65)"/>
<path d="M0 0 C0.66 0 1.32 0 2 0 C2.33 1.32 2.66 2.64 3 4 C3.66 4 4.32 4 5 4 C5.625 5.875 5.625 5.875 6 8 C5.34 8.66 4.68 9.32 4 10 C4 9.01 4 8.02 4 7 C3.30132812 7.30035156 2.60265625 7.60070312 1.8828125 7.91015625 C0.97273437 8.29042969 0.06265625 8.67070313 -0.875 9.0625 C-1.77992188 9.44535156 -2.68484375 9.82820313 -3.6171875 10.22265625 C-6 11 -6 11 -8 10 C-5.02819057 8.10134397 -2.48539917 6.64544429 1 6 C0.67 4.02 0.34 2.04 0 0 Z " fill="#444241" transform="translate(174,57)"/>
<path d="M0 0 C1.98 0 3.96 0 6 0 C6.33 1.32 6.66 2.64 7 4 C5.35 4.33 3.7 4.66 2 5 C1.67 6.65 1.34 8.3 1 10 C0.34 9.67 -0.32 9.34 -1 9 C-0.67 6.03 -0.34 3.06 0 0 Z " fill="#D5D4D4" transform="translate(139,208)"/>
<path d="M0 0 C1.98 0 3.96 0 6 0 C5.125 5.75 5.125 5.75 4 8 C3.01 7.67 2.02 7.34 1 7 C0.67 4.69 0.34 2.38 0 0 Z " fill="#7A7878" transform="translate(19,88)"/>
<path d="M0 0 C6.65050424 -0.24991456 12.56986533 0.26044666 19 2 C18.67 2.66 18.34 3.32 18 4 C15.03 3.67 12.06 3.34 9 3 C8.01 4.485 8.01 4.485 7 6 C6.67 5.01 6.34 4.02 6 3 C2.99152582 1.77479736 2.99152582 1.77479736 0 1 C0 0.67 0 0.34 0 0 Z " fill="#D5D4D4" transform="translate(105,23)"/>
<path d="M0 0 C1.65 0 3.3 0 5 0 C5 1.98 5 3.96 5 6 C2.69 6.33 0.38 6.66 -2 7 C-2 6.01 -2 5.02 -2 4 C-1.01 4 -0.02 4 1 4 C0.67 2.68 0.34 1.36 0 0 Z " fill="#7E7C7C" transform="translate(93,208)"/>
<path d="M0 0 C2.75457718 0.37994168 3.82020574 0.8073633 5.75 2.875 C7 5 7 5 7 8 C4.03 7.505 4.03 7.505 1 7 C0.67 4.69 0.34 2.38 0 0 Z " fill="#1C1A1A" transform="translate(180,108)"/>
<path d="M0 0 C0 0.66 0 1.32 0 2 C-3.63 2 -7.26 2 -11 2 C-10.67 1.01 -10.34 0.02 -10 -1 C-5.94568308 -2.15837626 -3.78187881 -1.83691257 0 0 Z " fill="#DCDBDB" transform="translate(150,204)"/>
<path d="M0 0 C-1.32 0.33 -2.64 0.66 -4 1 C-4 1.66 -4 2.32 -4 3 C-11.625 4.25 -11.625 4.25 -15 2 C-13.25364835 1.46706165 -11.50272348 0.94909337 -9.75 0.4375 C-8.77546875 0.14746094 -7.8009375 -0.14257812 -6.796875 -0.44140625 C-4.03756068 -0.99249836 -2.6087176 -0.93789609 0 0 Z " fill="#BCBAB4" transform="translate(128,163)"/>
<path d="M0 0 C0.33 0.99 0.66 1.98 1 3 C2.98723268 3.70381157 4.98777953 4.3711811 7 5 C7.33 5.66 7.66 6.32 8 7 C7.443125 6.855625 6.88625 6.71125 6.3125 6.5625 C3.88615805 5.97230872 1.45093655 5.476571 -1 5 C-2.485 7.475 -2.485 7.475 -4 10 C-4.66 9.67 -5.32 9.34 -6 9 C-5.505 8.236875 -5.01 7.47375 -4.5 6.6875 C-2.75631692 4.07636249 -2.75631692 4.07636249 -3 1 C-2.01 0.67 -1.02 0.34 0 0 Z " fill="#3C3939" transform="translate(28,54)"/>
<path d="M0 0 C0 1.98 0 3.96 0 6 C-0.66 6 -1.32 6 -2 6 C-2 6.66 -2 7.32 -2 8 C-2.99 8 -3.98 8 -5 8 C-5.1875 5.125 -5.1875 5.125 -5 2 C-2 0 -2 0 0 0 Z " fill="#A2A1A1" transform="translate(101,25)"/>
<path d="M0 0 C-3.3680102 2.24534013 -5.46284352 2.52562813 -9.4375 3.0625 C-14.76620126 3.79378323 -14.76620126 3.79378323 -20 5 C-20 4.34 -20 3.68 -20 3 C-13.19925959 1.09579269 -7.08076251 -0.40850553 0 0 Z " fill="#C0BCB8" transform="translate(125,131)"/>
<path d="M0 0 C1.08667969 0.11085938 2.17335937 0.22171875 3.29296875 0.3359375 C4.12441406 0.43132812 4.95585937 0.52671875 5.8125 0.625 C5.4825 1.285 5.1525 1.945 4.8125 2.625 C2.82023831 2.91419928 0.82527818 3.19764551 -1.1796875 3.37890625 C-3.39079268 3.5825063 -3.39079268 3.5825063 -6.1875 4.625 C-6.1875 3.965 -6.1875 3.305 -6.1875 2.625 C-7.1775 2.295 -8.1675 1.965 -9.1875 1.625 C-5.54331659 -0.80445561 -4.25826636 -0.4578781 0 0 Z " fill="#CFCDC9" transform="translate(138.1875,126.375)"/>
<path d="M0 0 C1.65 0.33 3.3 0.66 5 1 C5.33 3.64 5.66 6.28 6 9 C5.01 9 4.02 9 3 9 C3 6.69 3 4.38 3 2 C2.34 1.67 1.68 1.34 1 1 C1.33 2.32 1.66 3.64 2 5 C1.01 5 0.02 5 -1 5 C-0.67 3.35 -0.34 1.7 0 0 Z " fill="#2C2A2A" transform="translate(179,165)"/>
<path d="M0 0 C2.64 0 5.28 0 8 0 C7.34 1.65 6.68 3.3 6 5 C3.03 4.505 3.03 4.505 0 4 C0 2.68 0 1.36 0 0 Z " fill="#CBCACA" transform="translate(17,130)"/>
<path d="M0 0 C6.0546875 0.390625 6.0546875 0.390625 8 1 C8.66 2.32 9.32 3.64 10 5 C6.7 4.34 3.4 3.68 0 3 C0 2.01 0 1.02 0 0 Z " fill="#B3B4AB" transform="translate(116,40)"/>
<path d="M0 0 C0.66 0.33 1.32 0.66 2 1 C1.67 2.32 1.34 3.64 1 5 C-0.32 5 -1.64 5 -3 5 C-3.33 5.66 -3.66 6.32 -4 7 C-5.32 6.01 -6.64 5.02 -8 4 C-7.67 3.01 -7.34 2.02 -7 1 C-4.69 1.66 -2.38 2.32 0 3 C0 2.01 0 1.02 0 0 Z " fill="#201E1E" transform="translate(145,34)"/>
<path d="M0 0 C0.99 0.33 1.98 0.66 3 1 C3 3.64 3 6.28 3 9 C1.35 8.67 -0.3 8.34 -2 8 C-1.34 5.36 -0.68 2.72 0 0 Z " fill="#31984D" transform="translate(65,179)"/>
<path d="M0 0 C0.99 0.33 1.98 0.66 3 1 C3.1875 4.3125 3.1875 4.3125 3 8 C2.01 8.99 1.02 9.98 0 11 C0 7.37 0 3.74 0 0 Z " fill="#F2F2F2" transform="translate(188,124)"/>
<path d="M0 0 C0 0.99 0 1.98 0 3 C-0.33 3.33 -0.66 3.66 -1 4 C0.32 5.32 1.64 6.64 3 8 C1.5164999 7.57742724 0.03823576 7.13643678 -1.4375 6.6875 C-2.26121094 6.44386719 -3.08492187 6.20023438 -3.93359375 5.94921875 C-4.61550781 5.63597656 -5.29742187 5.32273438 -6 5 C-6.33 4.01 -6.66 3.02 -7 2 C-4.69 1.34 -2.38 0.68 0 0 Z " fill="#3A3838" transform="translate(171,211)"/>
<path d="M0 0 C0.33 0.66 0.66 1.32 1 2 C-3.62 2 -8.24 2 -13 2 C-13.33 1.34 -13.66 0.68 -14 0 C-4.08472437 -1.404124 -4.08472437 -1.404124 0 0 Z " fill="#C3BFBB" transform="translate(75,152)"/>
<path d="M0 0 C2.97 0.33 5.94 0.66 9 1 C6.3144406 3.6855594 3.62378672 4.06049974 0 5 C0 3.35 0 1.7 0 0 Z " fill="#8E8B8B" transform="translate(24,68)"/>
<path d="M0 0 C0.66 0 1.32 0 2 0 C5.17360194 3.57030218 7 7.19784004 7 12 C3.39998139 10.13792141 2.46510297 8.01013392 1.25 4.3125 C0.82014517 2.87888841 0.39917032 1.44245638 0 0 Z " fill="#959292" transform="translate(165,45)"/>
<path d="M0 0 C3.3 0 6.6 0 10 0 C9.01 1.485 9.01 1.485 8 3 C8 2.34 8 1.68 8 1 C5.48916886 2.25541557 5.12874554 3.50063488 4 6 C3.34 6 2.68 6 2 6 C2.33 5.01 2.66 4.02 3 3 C2.01 2.01 1.02 1.02 0 0 Z " fill="#373535" transform="translate(101,207)"/>
<path d="M0 0 C2.97 0.495 2.97 0.495 6 1 C5.34 2.32 4.68 3.64 4 5 C3.34 5 2.68 5 2 5 C1.67 6.65 1.34 8.3 1 10 C0.67 10 0.34 10 0 10 C0 6.7 0 3.4 0 0 Z " fill="#E4E3E3" transform="translate(99,208)"/>
<path d="M0 0 C2.97 0 5.94 0 9 0 C9 0.99 9 1.98 9 3 C6.03 3 3.06 3 0 3 C0 2.01 0 1.02 0 0 Z " fill="#EFEFEE" transform="translate(70,128)"/>
<path d="M0 0 C1.32 0 2.64 0 4 0 C4 3.3 4 6.6 4 10 C2.68 9.34 1.36 8.68 0 8 C0.66 7.67 1.32 7.34 2 7 C2 5.02 2 3.04 2 1 C1.34 0.67 0.68 0.34 0 0 Z " fill="#F0323A" transform="translate(99,111)"/>
<path d="M0 0 C1.5 1.3125 1.5 1.3125 3 3 C3 3.99 3 4.98 3 6 C0.69 6.33 -1.62 6.66 -4 7 C-3.67 6.01 -3.34 5.02 -3 4 C-2.34 3.67 -1.68 3.34 -1 3 C-0.67 2.01 -0.34 1.02 0 0 Z " fill="#D9D8D8" transform="translate(179,70)"/>
<path d="M0 0 C1.65 0 3.3 0 5 0 C5.33 1.65 5.66 3.3 6 5 C4.35 4.67 2.7 4.34 1 4 C0.67 2.68 0.34 1.36 0 0 Z " fill="#7C7B7B" transform="translate(161,51)"/>
<path d="M0 0 C0.99 0.33 1.98 0.66 3 1 C3 2.32 3 3.64 3 5 C0.69 5 -1.62 5 -4 5 C-4 4.34 -4 3.68 -4 3 C-3.34 3 -2.68 3 -2 3 C-2 2.34 -2 1.68 -2 1 C-1.34 0.67 -0.68 0.34 0 0 Z " fill="#0B0909" transform="translate(56,207)"/>
<path d="M0 0 C-0.66 0.66 -1.32 1.32 -2 2 C-2.6425235 4.06874034 -2.6425235 4.06874034 -3 6 C-3.99 6 -4.98 6 -6 6 C-6.33 4.35 -6.66 2.7 -7 1 C-4.53721199 -0.231394 -2.7204945 -0.07159196 0 0 Z " fill="#E8E8E8" transform="translate(45,208)"/>
<path d="M0 0 C-1.875 3.875 -1.875 3.875 -3 5 C-5.33944736 4.71269945 -7.6739143 4.38063221 -10 4 C-10 3.01 -10 2.02 -10 1 C-7.525 1.99 -7.525 1.99 -5 3 C-4.319375 2.2575 -4.319375 2.2575 -3.625 1.5 C-2 0 -2 0 0 0 Z " fill="#D6D5D5" transform="translate(43,49)"/>
<path d="M0 0 C1.32 0.33 2.64 0.66 4 1 C3.34 2.32 2.68 3.64 2 5 C0.68 4.67 -0.64 4.34 -2 4 C-1.34 2.68 -0.68 1.36 0 0 Z " fill="#1E9238" transform="translate(136,181)"/>
<path d="M0 0 C3.96 0.33 7.92 0.66 12 1 C12.625 3.875 12.625 3.875 13 7 C12.34 7.66 11.68 8.32 11 9 C10 6 10 6 11 2 C7.37 2 3.74 2 0 2 C0 1.34 0 0.68 0 0 Z " fill="#AAA7A7" transform="translate(174,103)"/>
<path d="M0 0 C0.33 0.99 0.66 1.98 1 3 C-2.96 4.98 -2.96 4.98 -7 7 C-3.5 0 -3.5 0 0 0 Z " fill="#B3B4AB" transform="translate(65,49)"/>
<path d="M0 0 C0.66 0 1.32 0 2 0 C2 3.63 2 7.26 2 11 C-1 7 -1 7 -0.6875 3.25 C-0.3471875 1.64125 -0.3471875 1.64125 0 0 Z " fill="#4E4948" transform="translate(121,207)"/>
<path d="M0 0 C0 1.32 0 2.64 0 4 C-1.65 4.33 -3.3 4.66 -5 5 C-5 3.68 -5 2.36 -5 1 C-3 0 -3 0 0 0 Z " fill="#289543" transform="translate(128,181)"/>
<path d="M0 0 C2.64 0.33 5.28 0.66 8 1 C8.33 1.99 8.66 2.98 9 4 C6.69 3.67 4.38 3.34 2 3 C2 2.34 2 1.68 2 1 C1.34 0.67 0.68 0.34 0 0 Z " fill="#F0F0EF" transform="translate(89,129)"/>
<path d="M0 0 C0.33 0 0.66 0 1 0 C1.66 2.31 2.32 4.62 3 7 C3.99 6.67 4.98 6.34 6 6 C5.67 7.32 5.34 8.64 5 10 C4.01 10 3.02 10 2 10 C-0.09350689 6.5980513 -0.17942163 3.94727588 0 0 Z " fill="#181616" transform="translate(18,107)"/>
<path d="M0 0 C-0.66 0 -1.32 0 -2 0 C-1.67 0.99 -1.34 1.98 -1 3 C-2.65 3.33 -4.3 3.66 -6 4 C-6 2.68 -6 1.36 -6 0 C-3.50907189 -1.24546405 -2.58919267 -0.7767578 0 0 Z " fill="#1B1919" transform="translate(67,33)"/>
<path d="M0 0 C2.31 0 4.62 0 7 0 C5.35 1.65 3.7 3.3 2 5 C1.01 4.34 0.02 3.68 -1 3 C-0.67 2.01 -0.34 1.02 0 0 Z " fill="#373535" transform="translate(179,140)"/>
<path d="M0 0 C1.62490954 -0.02698189 3.24994633 -0.04638757 4.875 -0.0625 C5.77992187 -0.07410156 6.68484375 -0.08570313 7.6171875 -0.09765625 C10 0 10 0 12 1 C12 1.66 12 2.32 12 3 C6.06 2.01 6.06 2.01 0 1 C0 0.67 0 0.34 0 0 Z " fill="#C9C7C3" transform="translate(88,137)"/>
<path d="M0 0 C2.0625 0.4375 2.0625 0.4375 4 1 C4 2.32 4 3.64 4 5 C3.34 5 2.68 5 2 5 C2 4.01 2 3.02 2 2 C0.68 2.99 -0.64 3.98 -2 5 C-1.125 1.125 -1.125 1.125 0 0 Z " fill="#444242" transform="translate(27,62)"/>
<path d="M0 0 C1.98 0.495 1.98 0.495 4 1 C3.01 1.66 2.02 2.32 1 3 C1.99 3 2.98 3 4 3 C4 3.99 4 4.98 4 6 C2.35 5.67 0.7 5.34 -1 5 C-0.67 3.35 -0.34 1.7 0 0 Z " fill="#252323" transform="translate(114,25)"/>
<path d="M0 0 C1.65 0 3.3 0 5 0 C5.33 0.66 5.66 1.32 6 2 C5.34 2 4.68 2 4 2 C4 2.66 4 3.32 4 4 C2.68 4 1.36 4 0 4 C0 2.68 0 1.36 0 0 Z " fill="#302D2D" transform="translate(126,210)"/>
<path d="M0 0 C0 0.66 0 1.32 0 2 C-4.625 4.125 -4.625 4.125 -8 3 C-8 2.34 -8 1.68 -8 1 C-5.23735711 0.40267181 -2.83967231 0 0 0 Z " fill="#9CCBA1" transform="translate(63,179)"/>
<path d="M0 0 C0.75 1.6875 0.75 1.6875 1 4 C-0.9375 6.75 -0.9375 6.75 -3 9 C-3.1875 5.625 -3.1875 5.625 -3 2 C-2.01 1.34 -1.02 0.68 0 0 Z " fill="#AFB3A7" transform="translate(43,68)"/>
<path d="M0 0 C1.32 0.66 2.64 1.32 4 2 C2.75 3.5625 2.75 3.5625 1 5 C-1.1875 4.6875 -1.1875 4.6875 -3 4 C-3 3.34 -3 2.68 -3 2 C-2.01 1.34 -1.02 0.68 0 0 Z " fill="#1B1919" transform="translate(142,30)"/>
<path d="M0 0 C1.37562854 1.28965176 2.70766393 2.62689293 4 4 C4 4.66 4 5.32 4 6 C3.34 6 2.68 6 2 6 C1.67 5.34 1.34 4.68 1 4 C0.01 4.66 -0.98 5.32 -2 6 C-1.34 4.02 -0.68 2.04 0 0 Z " fill="#1E1D1D" transform="translate(180,180)"/>
<path d="M0 0 C3.19902639 -0.08886184 5.92677456 0.08941469 9 1 C8.67 1.99 8.34 2.98 8 4 C5.64828869 3.40138258 3.3140622 2.73075648 1 2 C0.67 1.34 0.34 0.68 0 0 Z " fill="#0C8D2F" transform="translate(75,175)"/>
<path d="M0 0 C1.84765625 0.33984375 1.84765625 0.33984375 4.0625 0.9375 C5.16271484 1.22947266 5.16271484 1.22947266 6.28515625 1.52734375 C7.13400391 1.76130859 7.13400391 1.76130859 8 2 C8 2.33 8 2.66 8 3 C5.69 3 3.38 3 1 3 C0.67 3.99 0.34 4.98 0 6 C-0.38218767 4.34385343 -0.71395102 2.67542976 -1 1 C-0.67 0.67 -0.34 0.34 0 0 Z " fill="#1B1919" transform="translate(19,168)"/>
<path d="M0 0 C0.66 0 1.32 0 2 0 C2.33 1.65 2.66 3.3 3 5 C1.35 5 -0.3 5 -2 5 C-1.34 3.35 -0.68 1.7 0 0 Z " fill="#CBCACA" transform="translate(180,131)"/>
<path d="M0 0 C1.9375 0.3125 1.9375 0.3125 4 1 C4.33 1.99 4.66 2.98 5 4 C4.01 4.66 3.02 5.32 2 6 C0 3 0 3 0 0 Z " fill="#0A0708" transform="translate(172,70)"/>
<path d="M0 0 C2.475 0.99 2.475 0.99 5 2 C4.67 2.66 4.34 3.32 4 4 C3.01 4.33 2.02 4.66 1 5 C0.01 5.495 0.01 5.495 -1 6 C-1.042721 4.33388095 -1.04063832 2.66617115 -1 1 C-0.67 0.67 -0.34 0.34 0 0 Z " fill="#939191" transform="translate(30,51)"/>
<path d="M0 0 C2.97 0 5.94 0 9 0 C6.01353231 1.99097846 3.40312738 2.94124926 0 4 C0 2.68 0 1.36 0 0 Z " fill="#B6B4B4" transform="translate(78,27)"/>
<path d="M0 0 C0 0.99 0 1.98 0 3 C-2.31 3.33 -4.62 3.66 -7 4 C-6.67 3.01 -6.34 2.02 -6 1 C-3 0 -3 0 0 0 Z " fill="#C3C1C1" transform="translate(170,210)"/>
<path d="M0 0 C0.33 0.66 0.66 1.32 1 2 C0.0625 4.125 0.0625 4.125 -1 6 C-1.99 5.67 -2.98 5.34 -4 5 C-4.6875 2.9375 -4.6875 2.9375 -5 1 C-3.02 1.99 -3.02 1.99 -1 3 C-0.67 2.01 -0.34 1.02 0 0 Z " fill="#1B1818" transform="translate(24,132)"/>
<path d="M0 0 C0.66 0.33 1.32 0.66 2 1 C1.67 2.65 1.34 4.3 1 6 C-0.32 6 -1.64 6 -3 6 C-1.125 1.125 -1.125 1.125 0 0 Z " fill="#999898" transform="translate(27,130)"/>
<path d="M0 0 C0.99 0.33 1.98 0.66 3 1 C3 2.32 3 3.64 3 5 C1.68 5 0.36 5 -1 5 C-0.67 3.35 -0.34 1.7 0 0 Z " fill="#5D5C5B" transform="translate(176,113)"/>
<path d="M0 0 C0.66 0 1.32 0 2 0 C2.33 1.65 2.66 3.3 3 5 C1.35 5 -0.3 5 -2 5 C-1.34 3.35 -0.68 1.7 0 0 Z " fill="#D5D4D4" transform="translate(180,98)"/>
<path d="M0 0 C0.625 1.875 0.625 1.875 1 4 C-1 6 -1 6 -4.625 6.125 C-5.73875 6.08375 -6.8525 6.0425 -8 6 C-8 5.67 -8 5.34 -8 5 C-7.05125 4.731875 -6.1025 4.46375 -5.125 4.1875 C-1.74732727 3.25013412 -1.74732727 3.25013412 0 0 Z " fill="#141212" transform="translate(43,49)"/>
<path d="M0 0 C2.475 0.495 2.475 0.495 5 1 C4.67 2.32 4.34 3.64 4 5 C3.01 4.67 2.02 4.34 1 4 C1.33 3.67 1.66 3.34 2 3 C1.34 2.67 0.68 2.34 0 2 C0 1.34 0 0.68 0 0 Z " fill="#444242" transform="translate(105,24)"/>
<path d="M0 0 C-0.61875 0.433125 -1.2375 0.86625 -1.875 1.3125 C-4.2197245 2.99740483 -4.2197245 2.99740483 -6 6 C-6 4.68 -6 3.36 -6 2 C-6.99 1.67 -7.98 1.34 -9 1 C-5.92677456 0.08941469 -3.19902639 -0.08886184 0 0 Z " fill="#1B1818" transform="translate(83,24)"/>
</svg>
